<?xml version="1.0" encoding="UTF-8"?>
<!DOCTYPE svg PUBLIC "-//W3C//DTD SVG 1.1//EN" "http://www.w3.org/Graphics/SVG/1.1/DTD/svg11.dtd">
<svg xmlns="http://www.w3.org/2000/svg" version="1.1" width="128px" height="128px" style="shape-rendering:geometricPrecision; text-rendering:geometricPrecision; image-rendering:optimizeQuality; fill-rule:evenodd; clip-rule:evenodd" xmlns:xlink="http://www.w3.org/1999/xlink">
<g><path style="opacity:0.997" fill="#adaba8" d="M 66.5,4.5 C 59.7632,6.38959 52.7632,7.55626 45.5,8C 57.3405,8.16934 69.0072,8.66934 80.5,9.5C 77.1667,9.5 73.8333,9.5 70.5,9.5C 53.83,9.3334 37.1633,9.50007 20.5,10C 16.6492,11.5767 13.6492,14.0767 11.5,17.5C 10.8333,18.5 10.1667,19.5 9.5,20.5C 7.7839,20.3713 6.11723,20.038 4.5,19.5C 7.03813,12.1287 12.0381,7.29533 19.5,5C 35.1631,4.50008 50.8298,4.33341 66.5,4.5 Z"/></g>
<g><path style="opacity:1" fill="#88898a" d="M 66.5,4.5 C 80.504,4.33343 94.504,4.50009 108.5,5C 115.062,7.10372 119.729,11.2704 122.5,17.5C 120.585,17.2155 118.919,17.5489 117.5,18.5C 116.833,18.5 116.5,18.1667 116.5,17.5C 114.178,13.6811 110.845,11.1811 106.5,10C 99.5079,9.50038 92.5079,9.33371 85.5,9.5C 85.5,10.8333 85.5,12.1667 85.5,13.5C 83.8333,12.8333 82.1667,12.1667 80.5,11.5C 80.5,10.8333 80.5,10.1667 80.5,9.5C 69.0072,8.66934 57.3405,8.16934 45.5,8C 52.7632,7.55626 59.7632,6.38959 66.5,4.5 Z"/></g>
<g><path style="opacity:1" fill="#fee49d" d="M 70.5,9.5 C 50.9668,12.2346 31.3001,14.9013 11.5,17.5C 13.6492,14.0767 16.6492,11.5767 20.5,10C 37.1633,9.50007 53.83,9.3334 70.5,9.5 Z"/></g>
<g><path style="opacity:1" fill="#fedc82" d="M 70.5,9.5 C 73.8333,9.5 77.1667,9.5 80.5,9.5C 80.5,10.1667 80.5,10.8333 80.5,11.5C 80.5,12.5 80.5,13.5 80.5,14.5C 57.0917,18.3638 33.5917,21.6971 10,24.5C 9.53566,23.9056 9.36899,23.2389 9.5,22.5C 9.5,21.8333 9.5,21.1667 9.5,20.5C 10.1667,19.5 10.8333,18.5 11.5,17.5C 31.3001,14.9013 50.9668,12.2346 70.5,9.5 Z"/></g>
<g><path style="opacity:1" fill="#68a2c1" d="M 116.5,17.5 C 106.062,18.7617 95.7284,20.4284 85.5,22.5C 85.5,19.5 85.5,16.5 85.5,13.5C 85.5,12.1667 85.5,10.8333 85.5,9.5C 92.5079,9.33371 99.5079,9.50038 106.5,10C 110.845,11.1811 114.178,13.6811 116.5,17.5 Z"/></g>
<g><path style="opacity:1" fill="#eac25b" d="M 80.5,14.5 C 80.5,15.8333 80.5,17.1667 80.5,18.5C 79.7109,18.7828 79.0442,19.2828 78.5,20C 55.4943,22.8709 32.4943,25.7042 9.5,28.5C 9.5,29.8333 9.5,31.1667 9.5,32.5C 9.5,56.8333 9.5,81.1667 9.5,105.5C 8.50223,80.0054 8.16889,54.3388 8.5,28.5C 8.20528,26.2646 8.53862,24.2646 9.5,22.5C 9.36899,23.2389 9.53566,23.9056 10,24.5C 33.5917,21.6971 57.0917,18.3638 80.5,14.5 Z"/></g>
<g><path style="opacity:1" fill="#676767" d="M 4.5,19.5 C 6.11723,20.038 7.7839,20.3713 9.5,20.5C 9.5,21.1667 9.5,21.8333 9.5,22.5C 8.53862,24.2646 8.20528,26.2646 8.5,28.5C 6.7839,28.3713 5.11723,28.038 3.5,27.5C 3.5751,24.7938 3.90843,22.1272 4.5,19.5 Z"/></g>
<g><path style="opacity:1" fill="#ffcd49" d="M 80.5,18.5 C 80.5,21.5 80.5,24.5 80.5,27.5C 80.5,28.5 80.5,29.5 80.5,30.5C 79.4226,29.9816 78.2559,29.6483 77,29.5C 54.5928,33.321 32.0928,34.321 9.5,32.5C 9.5,31.1667 9.5,29.8333 9.5,28.5C 32.4943,25.7042 55.4943,22.8709 78.5,20C 79.0442,19.2828 79.7109,18.7828 80.5,18.5 Z"/></g>
<g><path style="opacity:0.894" fill="#050607" d="M 122.5,17.5 C 123.651,47.458 123.817,77.458 123,107.5C 120.434,117.547 113.934,123.047 103.5,124C 76.8333,124.667 50.1667,124.667 23.5,124C 12.3333,122.167 5.83333,115.667 4,104.5C 3.50003,78.8355 3.33336,53.1688 3.5,27.5C 5.11723,28.038 6.7839,28.3713 8.5,28.5C 8.16889,54.3388 8.50223,80.0054 9.5,105.5C 9.43255,106.959 9.76589,108.292 10.5,109.5C 12.3422,113.508 15.3422,116.341 19.5,118C 27.1594,118.5 34.8261,118.666 42.5,118.5C 42.5,112.167 42.5,105.833 42.5,99.5C 42.5,95.8333 42.5,92.1667 42.5,88.5C 55.1667,88.5 67.8333,88.5 80.5,88.5C 80.5,80.5 80.5,72.5 80.5,64.5C 82.1667,64.5 83.8333,64.5 85.5,64.5C 85.5,73.8333 85.5,83.1667 85.5,92.5C 72.8333,92.5 60.1667,92.5 47.5,92.5C 47.5,97.8333 47.5,103.167 47.5,108.5C 47.5,111.833 47.5,115.167 47.5,118.5C 67.1695,118.667 86.8362,118.5 106.5,118C 113.612,115.723 117.612,110.89 118.5,103.5C 118.5,79.1667 118.5,54.8333 118.5,30.5C 118.605,26.4517 118.272,22.4517 117.5,18.5C 118.919,17.5489 120.585,17.2155 122.5,17.5 Z"/></g>
<g><path style="opacity:1" fill="#3784ae" d="M 116.5,17.5 C 116.5,18.1667 116.833,18.5 117.5,18.5C 118.272,22.4517 118.605,26.4517 118.5,30.5C 117.844,29.7222 117.011,29.0556 116,28.5C 105.826,30.1256 95.6596,31.4589 85.5,32.5C 85.5,29.1667 85.5,25.8333 85.5,22.5C 95.7284,20.4284 106.062,18.7617 116.5,17.5 Z"/></g>
<g><path style="opacity:1" fill="#3b4145" d="M 80.5,11.5 C 82.1667,12.1667 83.8333,12.8333 85.5,13.5C 85.5,16.5 85.5,19.5 85.5,22.5C 85.5,25.8333 85.5,29.1667 85.5,32.5C 85.5,32.8333 85.5,33.1667 85.5,33.5C 84.5386,31.7354 84.2053,29.7354 84.5,27.5C 83.1667,27.5 81.8333,27.5 80.5,27.5C 80.5,24.5 80.5,21.5 80.5,18.5C 80.5,17.1667 80.5,15.8333 80.5,14.5C 80.5,13.5 80.5,12.5 80.5,11.5 Z"/></g>
<g><path style="opacity:1" fill="#1b71a0" d="M 118.5,30.5 C 118.5,54.8333 118.5,79.1667 118.5,103.5C 116.516,102.844 114.516,102.178 112.5,101.5C 93.0206,103.304 73.5206,104.971 54,106.5C 51.5505,106.658 49.3838,107.325 47.5,108.5C 47.5,103.167 47.5,97.8333 47.5,92.5C 60.1667,92.5 72.8333,92.5 85.5,92.5C 85.5,83.1667 85.5,73.8333 85.5,64.5C 83.8333,64.5 82.1667,64.5 80.5,64.5C 67.6557,64.8287 54.989,64.4954 42.5,63.5C 44.1667,63.5 45.8333,63.5 47.5,63.5C 47.5,55.8333 47.5,48.1667 47.5,40.5C 60.1667,40.5 72.8333,40.5 85.5,40.5C 85.5,38.1667 85.5,35.8333 85.5,33.5C 85.5,33.1667 85.5,32.8333 85.5,32.5C 95.6596,31.4589 105.826,30.1256 116,28.5C 117.011,29.0556 117.844,29.7222 118.5,30.5 Z"/></g>
<g><path style="opacity:1" fill="#fbbe1b" d="M 80.5,30.5 C 80.5,32.1667 80.5,33.8333 80.5,35.5C 67.8333,35.5 55.1667,35.5 42.5,35.5C 42.5,44.8333 42.5,54.1667 42.5,63.5C 54.989,64.4954 67.6557,64.8287 80.5,64.5C 80.5,72.5 80.5,80.5 80.5,88.5C 67.8333,88.5 55.1667,88.5 42.5,88.5C 42.5,92.1667 42.5,95.8333 42.5,99.5C 41.7948,102.228 41.1281,105.061 40.5,108C 32.7808,108.565 25.1141,109.398 17.5,110.5C 15.2534,109.626 12.9201,109.292 10.5,109.5C 9.76589,108.292 9.43255,106.959 9.5,105.5C 9.5,81.1667 9.5,56.8333 9.5,32.5C 32.0928,34.321 54.5928,33.321 77,29.5C 78.2559,29.6483 79.4226,29.9816 80.5,30.5 Z"/></g>
<g><path style="opacity:1" fill="#050a0e" d="M 80.5,27.5 C 81.8333,27.5 83.1667,27.5 84.5,27.5C 84.2053,29.7354 84.5386,31.7354 85.5,33.5C 85.5,35.8333 85.5,38.1667 85.5,40.5C 72.8333,40.5 60.1667,40.5 47.5,40.5C 47.5,48.1667 47.5,55.8333 47.5,63.5C 45.8333,63.5 44.1667,63.5 42.5,63.5C 42.5,54.1667 42.5,44.8333 42.5,35.5C 55.1667,35.5 67.8333,35.5 80.5,35.5C 80.5,33.8333 80.5,32.1667 80.5,30.5C 80.5,29.5 80.5,28.5 80.5,27.5 Z"/></g>
<g><path style="opacity:1" fill="#d7a41c" d="M 42.5,99.5 C 42.5,105.833 42.5,112.167 42.5,118.5C 34.8261,118.666 27.1594,118.5 19.5,118C 15.3422,116.341 12.3422,113.508 10.5,109.5C 12.9201,109.292 15.2534,109.626 17.5,110.5C 25.1141,109.398 32.7808,108.565 40.5,108C 41.1281,105.061 41.7948,102.228 42.5,99.5 Z"/></g>
<g><path style="opacity:1" fill="#185f85" d="M 118.5,103.5 C 117.612,110.89 113.612,115.723 106.5,118C 86.8362,118.5 67.1695,118.667 47.5,118.5C 47.5,115.167 47.5,111.833 47.5,108.5C 49.3838,107.325 51.5505,106.658 54,106.5C 73.5206,104.971 93.0206,103.304 112.5,101.5C 114.516,102.178 116.516,102.844 118.5,103.5 Z"/></g>
</svg>
