<?xml version="1.0" encoding="UTF-8"?>
<!DOCTYPE svg PUBLIC "-//W3C//DTD SVG 1.1//EN" "http://www.w3.org/Graphics/SVG/1.1/DTD/svg11.dtd">
<svg xmlns="http://www.w3.org/2000/svg" version="1.1" width="308px" height="308px" style="shape-rendering:geometricPrecision; text-rendering:geometricPrecision; image-rendering:optimizeQuality; fill-rule:evenodd; clip-rule:evenodd" xmlns:xlink="http://www.w3.org/1999/xlink">
<g><path style="opacity:0.995" fill="#b753f5" d="M 187.5,25.5 C 187.312,27.1033 187.812,28.4366 189,29.5C 190.147,28.5419 191.147,28.8753 192,30.5C 194.235,29.7607 196.235,29.7607 198,30.5C 198.333,31.1667 198.667,31.8333 199,32.5C 200,32.1667 201,31.8333 202,31.5C 202.333,32.1667 202.667,32.8333 203,33.5C 204.425,34.0792 206.092,34.0792 208,33.5C 209.57,34.614 210.903,35.9474 212,37.5C 214.235,36.7607 216.235,36.7607 218,37.5C 219.512,38.2567 220.846,39.2567 222,40.5C 222.333,39.8333 222.667,39.1667 223,38.5C 224.333,39.8333 225.667,41.1667 227,42.5C 227.414,42.0426 227.914,41.7093 228.5,41.5C 229.833,42.5 231.167,43.5 232.5,44.5C 232.833,43.8333 233.167,43.1667 233.5,42.5C 235.316,44.4414 237.316,45.1081 239.5,44.5C 241.179,46.1045 243.179,46.7711 245.5,46.5C 245.259,49.999 246.092,50.3323 248,47.5C 248.915,48.3279 249.581,49.3279 250,50.5C 250.333,49.8333 250.667,49.1667 251,48.5C 252,49.5 253,50.5 254,51.5C 254.333,50.8333 254.667,50.1667 255,49.5C 257.906,51.6192 260.906,53.6192 264,55.5C 264.667,54.1667 265.333,52.8333 266,51.5C 269.621,54.8808 273.454,55.5475 277.5,53.5C 275.164,60.8498 272.83,68.1831 270.5,75.5C 268.61,75.7035 267.11,75.0368 266,73.5C 264.853,74.4581 263.853,74.1247 263,72.5C 262.586,72.9574 262.086,73.2907 261.5,73.5C 260.23,72.4378 259.063,71.4378 258,70.5C 257.586,70.9574 257.086,71.2907 256.5,71.5C 252.451,70.0515 248.951,68.3849 246,66.5C 245,66.8333 244,67.1667 243,67.5C 241.538,65.2924 239.705,64.6258 237.5,65.5C 237.891,64.1095 237.058,63.1095 235,62.5C 234.586,62.9574 234.086,63.2907 233.5,63.5C 231.705,62.7349 229.872,62.0682 228,61.5C 225.706,59.7868 223.373,58.1202 221,56.5C 219.286,57.9255 217.953,57.5922 217,55.5C 215.612,56.5536 214.112,56.7203 212.5,56C 213.167,55.6667 213.833,55.3333 214.5,55C 213.216,54.3162 212.049,54.4829 211,55.5C 210.374,53.0087 209.541,53.0087 208.5,55.5C 208.002,54.3966 207.669,53.3966 207.5,52.5C 206.808,53.0253 206.308,53.6919 206,54.5C 205.424,51.8758 204.09,51.2092 202,52.5C 201.667,51.8333 201.333,51.1667 201,50.5C 199.333,50.5 197.667,50.5 196,50.5C 195.676,48.4311 194.842,48.0977 193.5,49.5C 191.587,48.627 189.753,47.627 188,46.5C 187.586,46.9574 187.086,47.2907 186.5,47.5C 184.58,45.4495 181.747,43.7828 178,42.5C 175.4,43.3067 173.066,42.64 171,40.5C 170.667,40.8333 170.333,41.1667 170,41.5C 169.131,38.2374 167.797,37.9041 166,40.5C 164.644,38.5911 163.144,36.9245 161.5,35.5C 163.725,32.1114 166.725,29.6114 170.5,28C 175.988,25.9843 181.655,25.151 187.5,25.5 Z"/></g>
<g><path style="opacity:0.967" fill="#b44ff8" d="M 187.5,25.5 C 215.502,25.3334 243.502,25.5 271.5,26C 279.959,28.4152 283.126,33.9152 281,42.5C 279.726,46.1537 278.56,49.8204 277.5,53.5C 273.454,55.5475 269.621,54.8808 266,51.5C 265.333,52.8333 264.667,54.1667 264,55.5C 260.906,53.6192 257.906,51.6192 255,49.5C 254.667,50.1667 254.333,50.8333 254,51.5C 253,50.5 252,49.5 251,48.5C 250.667,49.1667 250.333,49.8333 250,50.5C 249.581,49.3279 248.915,48.3279 248,47.5C 246.092,50.3323 245.259,49.999 245.5,46.5C 243.179,46.7711 241.179,46.1045 239.5,44.5C 237.316,45.1081 235.316,44.4414 233.5,42.5C 233.167,43.1667 232.833,43.8333 232.5,44.5C 231.167,43.5 229.833,42.5 228.5,41.5C 227.914,41.7093 227.414,42.0426 227,42.5C 225.667,41.1667 224.333,39.8333 223,38.5C 222.667,39.1667 222.333,39.8333 222,40.5C 220.846,39.2567 219.512,38.2567 218,37.5C 216.235,36.7607 214.235,36.7607 212,37.5C 210.903,35.9474 209.57,34.614 208,33.5C 206.092,34.0792 204.425,34.0792 203,33.5C 202.667,32.8333 202.333,32.1667 202,31.5C 201,31.8333 200,32.1667 199,32.5C 198.667,31.8333 198.333,31.1667 198,30.5C 196.235,29.7607 194.235,29.7607 192,30.5C 191.147,28.8753 190.147,28.5419 189,29.5C 187.812,28.4366 187.312,27.1033 187.5,25.5 Z"/></g>
<g><path style="opacity:0.995" fill="#bc5aef" d="M 158.5,40.5 C 158.119,42.9418 158.786,43.6085 160.5,42.5C 163.295,43.8078 165.795,45.4745 168,47.5C 168.308,46.6919 168.808,46.0253 169.5,45.5C 172.43,46.5466 174.93,48.2132 177,50.5C 178.154,48.0426 179.488,48.0426 181,50.5C 181.333,50.1667 181.667,49.8333 182,49.5C 183.667,50.8333 185.333,52.1667 187,53.5C 187.667,50.8333 188.333,50.8333 189,53.5C 189.333,52.8333 189.667,52.1667 190,51.5C 192.239,52.9191 194.572,54.9191 197,57.5C 197.974,55.1224 198.641,55.4557 199,58.5C 199.667,55.8333 200.333,55.8333 201,58.5C 201.333,57.8333 201.667,57.1667 202,56.5C 202.833,57.5 203.667,58.5 204.5,59.5C 205.716,58.9984 206.883,58.6651 208,58.5C 208.918,60.6324 210.251,61.299 212,60.5C 213.044,61.6226 213.71,62.9559 214,64.5C 215.389,60.7279 216.389,60.7279 217,64.5C 217.423,63.0439 218.256,62.5439 219.5,63C 218.167,64.8402 218.334,65.3402 220,64.5C 221.851,66.7811 223.518,66.7811 225,64.5C 226.012,66.8642 227.345,68.1976 229,68.5C 230.16,66.203 231.16,66.5363 232,69.5C 232.974,67.1224 233.641,67.4557 234,70.5C 234.333,69.5 234.667,68.5 235,67.5C 235.415,69.2909 236.415,70.6243 238,71.5C 238.974,69.1224 239.641,69.4557 240,72.5C 240.308,71.6919 240.808,71.0253 241.5,70.5C 242.696,70.8457 242.696,71.3457 241.5,72C 243.615,72.5573 245.615,73.3906 247.5,74.5C 249.167,74.5 250.833,74.5 252.5,74.5C 253.333,75.5 254.167,76.5 255,77.5C 255.667,74.8333 256.333,74.8333 257,77.5C 257.414,77.0426 257.914,76.7093 258.5,76.5C 261.437,78.8126 264.77,80.1459 268.5,80.5C 267.576,85.6065 266.242,90.6065 264.5,95.5C 260.413,95.7065 256.913,94.3731 254,91.5C 253,91.8333 252,92.1667 251,92.5C 250.683,90.6992 250.016,90.3659 249,91.5C 245.246,90.0775 241.58,88.4109 238,86.5C 236.984,87.6341 236.317,87.3008 236,85.5C 235.667,85.8333 235.333,86.1667 235,86.5C 233.184,84.5586 231.184,83.8919 229,84.5C 228.311,83.6433 227.478,82.9767 226.5,82.5C 224.93,82.6938 223.43,82.6938 222,82.5C 221.683,80.6992 221.016,80.3659 220,81.5C 217.944,79.6812 215.777,79.0145 213.5,79.5C 209.573,78.077 205.573,76.077 201.5,73.5C 199.405,74.2294 197.572,73.5628 196,71.5C 192.591,71.5947 189.258,70.5947 186,68.5C 184.434,69.0606 183.101,68.3939 182,66.5C 181.667,66.8333 181.333,67.1667 181,67.5C 177.512,66.0892 174.178,64.4225 171,62.5C 168.909,63.4996 167.243,62.8329 166,60.5C 165.586,60.9574 165.086,61.2907 164.5,61.5C 161.259,60.0443 157.926,58.711 154.5,57.5C 153.614,56.675 153.281,55.675 153.5,54.5C 154.398,49.466 156.065,44.7994 158.5,40.5 Z"/></g>
<g><path style="opacity:0.998" fill="#ba57f2" d="M 161.5,35.5 C 163.144,36.9245 164.644,38.5911 166,40.5C 167.797,37.9041 169.131,38.2374 170,41.5C 170.333,41.1667 170.667,40.8333 171,40.5C 173.066,42.64 175.4,43.3067 178,42.5C 181.747,43.7828 184.58,45.4495 186.5,47.5C 187.086,47.2907 187.586,46.9574 188,46.5C 189.753,47.627 191.587,48.627 193.5,49.5C 194.842,48.0977 195.676,48.4311 196,50.5C 197.667,50.5 199.333,50.5 201,50.5C 201.333,51.1667 201.667,51.8333 202,52.5C 204.09,51.2092 205.424,51.8758 206,54.5C 206.308,53.6919 206.808,53.0253 207.5,52.5C 207.669,53.3966 208.002,54.3966 208.5,55.5C 209.541,53.0087 210.374,53.0087 211,55.5C 212.049,54.4829 213.216,54.3162 214.5,55C 213.833,55.3333 213.167,55.6667 212.5,56C 214.112,56.7203 215.612,56.5536 217,55.5C 217.953,57.5922 219.286,57.9255 221,56.5C 223.373,58.1202 225.706,59.7868 228,61.5C 229.872,62.0682 231.705,62.7349 233.5,63.5C 234.086,63.2907 234.586,62.9574 235,62.5C 237.058,63.1095 237.891,64.1095 237.5,65.5C 239.705,64.6258 241.538,65.2924 243,67.5C 244,67.1667 245,66.8333 246,66.5C 248.951,68.3849 252.451,70.0515 256.5,71.5C 257.086,71.2907 257.586,70.9574 258,70.5C 259.063,71.4378 260.23,72.4378 261.5,73.5C 262.086,73.2907 262.586,72.9574 263,72.5C 263.853,74.1247 264.853,74.4581 266,73.5C 267.11,75.0368 268.61,75.7035 270.5,75.5C 270.204,77.403 269.537,79.0697 268.5,80.5C 264.77,80.1459 261.437,78.8126 258.5,76.5C 257.914,76.7093 257.414,77.0426 257,77.5C 256.333,74.8333 255.667,74.8333 255,77.5C 254.167,76.5 253.333,75.5 252.5,74.5C 250.833,74.5 249.167,74.5 247.5,74.5C 245.615,73.3906 243.615,72.5573 241.5,72C 242.696,71.3457 242.696,70.8457 241.5,70.5C 240.808,71.0253 240.308,71.6919 240,72.5C 239.641,69.4557 238.974,69.1224 238,71.5C 236.415,70.6243 235.415,69.2909 235,67.5C 234.667,68.5 234.333,69.5 234,70.5C 233.641,67.4557 232.974,67.1224 232,69.5C 231.16,66.5363 230.16,66.203 229,68.5C 227.345,68.1976 226.012,66.8642 225,64.5C 223.518,66.7811 221.851,66.7811 220,64.5C 218.334,65.3402 218.167,64.8402 219.5,63C 218.256,62.5439 217.423,63.0439 217,64.5C 216.389,60.7279 215.389,60.7279 214,64.5C 213.71,62.9559 213.044,61.6226 212,60.5C 210.251,61.299 208.918,60.6324 208,58.5C 206.883,58.6651 205.716,58.9984 204.5,59.5C 203.667,58.5 202.833,57.5 202,56.5C 201.667,57.1667 201.333,57.8333 201,58.5C 200.333,55.8333 199.667,55.8333 199,58.5C 198.641,55.4557 197.974,55.1224 197,57.5C 194.572,54.9191 192.239,52.9191 190,51.5C 189.667,52.1667 189.333,52.8333 189,53.5C 188.333,50.8333 187.667,50.8333 187,53.5C 185.333,52.1667 183.667,50.8333 182,49.5C 181.667,49.8333 181.333,50.1667 181,50.5C 179.488,48.0426 178.154,48.0426 177,50.5C 174.93,48.2132 172.43,46.5466 169.5,45.5C 168.808,46.0253 168.308,46.6919 168,47.5C 165.795,45.4745 163.295,43.8078 160.5,42.5C 158.786,43.6085 158.119,42.9418 158.5,40.5C 159.11,38.5659 160.11,36.8993 161.5,35.5 Z"/></g>
<g><path style="opacity:0.995" fill="#bf5eeb" d="M 153.5,54.5 C 153.281,55.675 153.614,56.675 154.5,57.5C 157.926,58.711 161.259,60.0443 164.5,61.5C 165.086,61.2907 165.586,60.9574 166,60.5C 167.243,62.8329 168.909,63.4996 171,62.5C 174.178,64.4225 177.512,66.0892 181,67.5C 181.333,67.1667 181.667,66.8333 182,66.5C 183.101,68.3939 184.434,69.0606 186,68.5C 189.258,70.5947 192.591,71.5947 196,71.5C 197.572,73.5628 199.405,74.2294 201.5,73.5C 205.573,76.077 209.573,78.077 213.5,79.5C 215.777,79.0145 217.944,79.6812 220,81.5C 221.016,80.3659 221.683,80.6992 222,82.5C 223.43,82.6938 224.93,82.6938 226.5,82.5C 227.478,82.9767 228.311,83.6433 229,84.5C 231.184,83.8919 233.184,84.5586 235,86.5C 235.333,86.1667 235.667,85.8333 236,85.5C 236.317,87.3008 236.984,87.6341 238,86.5C 241.58,88.4109 245.246,90.0775 249,91.5C 250.016,90.3659 250.683,90.6992 251,92.5C 252,92.1667 253,91.8333 254,91.5C 256.913,94.3731 260.413,95.7065 264.5,95.5C 263.363,99.5786 262.029,103.579 260.5,107.5C 259.316,105.59 257.816,105.257 256,106.5C 255.683,104.699 255.016,104.366 254,105.5C 252.933,104.809 251.766,104.309 250.5,104C 251.167,103.667 251.833,103.333 252.5,103C 250.782,102.654 249.115,102.154 247.5,101.5C 245.108,102.208 242.941,101.542 241,99.5C 240.667,100.167 240.333,100.833 240,101.5C 240.035,97.7548 239.035,97.0881 237,99.5C 232.094,98.5446 227.761,96.5446 224,93.5C 223.667,94.1667 223.333,94.8333 223,95.5C 222.333,94.1667 221.667,92.8333 221,91.5C 220.333,94.1667 219.667,94.1667 219,91.5C 218.667,91.8333 218.333,92.1667 218,92.5C 216.863,91.636 215.53,90.636 214,89.5C 213.333,92.1667 212.667,92.1667 212,89.5C 211,89.8333 210,90.1667 209,90.5C 207.647,89.3147 206.48,87.9814 205.5,86.5C 204.575,87.6405 203.741,87.6405 203,86.5C 202.667,87.1667 202.333,87.8333 202,88.5C 201.333,87.1667 200.667,85.8333 200,84.5C 197.945,84.848 195.945,84.1814 194,82.5C 192.984,83.6341 192.317,83.3008 192,81.5C 188.654,83.0601 185.654,82.0601 183,78.5C 182.667,79.1667 182.333,79.8333 182,80.5C 181.082,78.3676 179.749,77.701 178,78.5C 176.745,76.1466 175.078,75.4799 173,76.5C 170.244,75.3141 167.578,73.9808 165,72.5C 163.127,73.0891 161.46,72.4224 160,70.5C 157.667,70.5 155.333,70.5 153,70.5C 151.331,68.8309 150.498,66.8309 150.5,64.5C 151.13,60.9523 152.13,57.6189 153.5,54.5 Z"/></g>
<g><path style="opacity:0.997" fill="#c261e8" d="M 150.5,64.5 C 150.498,66.8309 151.331,68.8309 153,70.5C 155.333,70.5 157.667,70.5 160,70.5C 161.46,72.4224 163.127,73.0891 165,72.5C 167.578,73.9808 170.244,75.3141 173,76.5C 175.078,75.4799 176.745,76.1466 178,78.5C 179.749,77.701 181.082,78.3676 182,80.5C 182.333,79.8333 182.667,79.1667 183,78.5C 185.654,82.0601 188.654,83.0601 192,81.5C 192.317,83.3008 192.984,83.6341 194,82.5C 195.945,84.1814 197.945,84.848 200,84.5C 200.667,85.8333 201.333,87.1667 202,88.5C 202.333,87.8333 202.667,87.1667 203,86.5C 203.741,87.6405 204.575,87.6405 205.5,86.5C 206.48,87.9814 207.647,89.3147 209,90.5C 210,90.1667 211,89.8333 212,89.5C 212.667,92.1667 213.333,92.1667 214,89.5C 215.53,90.636 216.863,91.636 218,92.5C 218.333,92.1667 218.667,91.8333 219,91.5C 219.667,94.1667 220.333,94.1667 221,91.5C 221.667,92.8333 222.333,94.1667 223,95.5C 223.333,94.8333 223.667,94.1667 224,93.5C 227.761,96.5446 232.094,98.5446 237,99.5C 239.035,97.0881 240.035,97.7548 240,101.5C 240.333,100.833 240.667,100.167 241,99.5C 242.941,101.542 245.108,102.208 247.5,101.5C 249.115,102.154 250.782,102.654 252.5,103C 251.833,103.333 251.167,103.667 250.5,104C 251.766,104.309 252.933,104.809 254,105.5C 255.016,104.366 255.683,104.699 256,106.5C 257.816,105.257 259.316,105.59 260.5,107.5C 260.037,110.221 259.371,112.888 258.5,115.5C 256.83,115.751 255.33,116.418 254,117.5C 253.667,116.833 253.333,116.167 253,115.5C 251.755,115.461 250.422,115.795 249,116.5C 247.238,116.056 247.405,115.556 249.5,115C 244.316,113.941 239.482,112.107 235,109.5C 234.667,109.833 234.333,110.167 234,110.5C 229.719,107.918 225.719,106.585 222,106.5C 216.968,104.16 211.968,101.826 207,99.5C 203.908,100.54 200.908,99.5396 198,96.5C 196.251,97.299 194.918,96.6324 194,94.5C 189.22,94.6736 184.72,93.3403 180.5,90.5C 179.914,90.7093 179.414,91.0426 179,91.5C 174.788,89.6443 170.621,87.6443 166.5,85.5C 165.833,85.8333 165.167,86.1667 164.5,86.5C 164.891,85.1095 164.058,84.1095 162,83.5C 160.097,83.6938 158.263,83.6938 156.5,83.5C 155.186,82.6872 154.019,81.6872 153,80.5C 152.667,81.1667 152.333,81.8333 152,82.5C 150.565,80.7887 148.731,79.622 146.5,79C 147.38,77.6439 147.714,76.1439 147.5,74.5C 147.899,70.8835 148.899,67.5502 150.5,64.5 Z"/></g>
<g><path style="opacity:0.996" fill="#c465e4" d="M 147.5,74.5 C 147.714,76.1439 147.38,77.6439 146.5,79C 148.731,79.622 150.565,80.7887 152,82.5C 152.333,81.8333 152.667,81.1667 153,80.5C 154.019,81.6872 155.186,82.6872 156.5,83.5C 158.263,83.6938 160.097,83.6938 162,83.5C 164.058,84.1095 164.891,85.1095 164.5,86.5C 165.167,86.1667 165.833,85.8333 166.5,85.5C 170.621,87.6443 174.788,89.6443 179,91.5C 179.414,91.0426 179.914,90.7093 180.5,90.5C 184.72,93.3403 189.22,94.6736 194,94.5C 194.918,96.6324 196.251,97.299 198,96.5C 200.908,99.5396 203.908,100.54 207,99.5C 211.968,101.826 216.968,104.16 222,106.5C 225.719,106.585 229.719,107.918 234,110.5C 234.333,110.167 234.667,109.833 235,109.5C 239.482,112.107 244.316,113.941 249.5,115C 247.405,115.556 247.238,116.056 249,116.5C 250.422,115.795 251.755,115.461 253,115.5C 253.333,116.167 253.667,116.833 254,117.5C 255.33,116.418 256.83,115.751 258.5,115.5C 256.836,120.817 255.17,126.15 253.5,131.5C 252.504,131.414 251.671,131.748 251,132.5C 248.429,130.647 245.762,128.981 243,127.5C 241.883,127.665 240.716,127.998 239.5,128.5C 238.201,127.91 237.368,126.91 237,125.5C 236.333,126.167 235.667,126.833 235,127.5C 231.572,126.176 228.405,124.343 225.5,122C 222.287,122.869 219.787,121.702 218,118.5C 217.667,119.167 217.333,119.833 217,120.5C 215.301,119.594 213.467,119.261 211.5,119.5C 211.318,114.206 210.818,114.206 210,119.5C 208.855,114.476 206.855,113.476 204,116.5C 203.667,115.5 203.333,114.5 203,113.5C 201.853,114.458 200.853,114.125 200,112.5C 198.315,114.988 196.981,114.655 196,111.5C 195.026,113.878 194.359,113.544 194,110.5C 193.667,111.167 193.333,111.833 193,112.5C 191.615,111.449 190.615,110.116 190,108.5C 189,108.833 188,109.167 187,109.5C 186.333,106.833 185.667,106.833 185,109.5C 183.494,106.526 181.828,106.193 180,108.5C 177.633,107.181 175.299,105.181 173,102.5C 171.333,102.833 169.667,103.167 168,103.5C 165.99,102.553 163.99,100.886 162,98.5C 161.667,99.5 161.333,100.5 161,101.5C 160.633,97.7188 159.3,97.0522 157,99.5C 156.333,96.8333 155.667,96.8333 155,99.5C 153.352,98.283 151.519,97.4497 149.5,97C 150.167,96.6667 150.833,96.3333 151.5,96C 150.216,95.3162 149.049,95.4829 148,96.5C 147.641,93.4557 146.974,93.1224 146,95.5C 145.683,93.6992 145.016,93.3659 144,94.5C 142.812,93.4366 142.312,92.1033 142.5,90.5C 143.566,84.8802 145.233,79.5468 147.5,74.5 Z"/></g>
<g><path style="opacity:0.996" fill="#c769e1" d="M 142.5,90.5 C 142.312,92.1033 142.812,93.4366 144,94.5C 145.016,93.3659 145.683,93.6992 146,95.5C 146.974,93.1224 147.641,93.4557 148,96.5C 149.049,95.4829 150.216,95.3162 151.5,96C 150.833,96.3333 150.167,96.6667 149.5,97C 151.519,97.4497 153.352,98.283 155,99.5C 155.667,96.8333 156.333,96.8333 157,99.5C 159.3,97.0522 160.633,97.7188 161,101.5C 161.333,100.5 161.667,99.5 162,98.5C 163.99,100.886 165.99,102.553 168,103.5C 169.667,103.167 171.333,102.833 173,102.5C 175.299,105.181 177.633,107.181 180,108.5C 181.828,106.193 183.494,106.526 185,109.5C 185.667,106.833 186.333,106.833 187,109.5C 188,109.167 189,108.833 190,108.5C 190.615,110.116 191.615,111.449 193,112.5C 193.333,111.833 193.667,111.167 194,110.5C 194.359,113.544 195.026,113.878 196,111.5C 196.981,114.655 198.315,114.988 200,112.5C 200.853,114.125 201.853,114.458 203,113.5C 203.333,114.5 203.667,115.5 204,116.5C 206.855,113.476 208.855,114.476 210,119.5C 210.818,114.206 211.318,114.206 211.5,119.5C 213.467,119.261 215.301,119.594 217,120.5C 217.333,119.833 217.667,119.167 218,118.5C 219.787,121.702 222.287,122.869 225.5,122C 228.405,124.343 231.572,126.176 235,127.5C 235.667,126.833 236.333,126.167 237,125.5C 237.368,126.91 238.201,127.91 239.5,128.5C 240.716,127.998 241.883,127.665 243,127.5C 245.762,128.981 248.429,130.647 251,132.5C 251.671,131.748 252.504,131.414 253.5,131.5C 252.308,135.302 250.975,138.969 249.5,142.5C 249.631,141.624 249.298,140.957 248.5,140.5C 247.097,140.36 245.597,140.36 244,140.5C 243.333,137.833 242.667,137.833 242,140.5C 240.43,139.386 239.097,138.053 238,136.5C 236.883,136.665 235.716,136.998 234.5,137.5C 230.284,135.816 225.95,134.316 221.5,133C 219.042,130.716 216.542,129.216 214,128.5C 213.374,130.991 212.541,130.991 211.5,128.5C 210.914,128.709 210.414,129.043 210,129.5C 208.757,127.167 207.091,126.5 205,127.5C 204.935,125.117 204.102,124.45 202.5,125.5C 201.522,125.023 200.689,124.357 200,123.5C 199.026,125.878 198.359,125.544 198,122.5C 197.667,123.167 197.333,123.833 197,124.5C 195.863,123.636 194.53,122.636 193,121.5C 192.667,122.167 192.333,122.833 192,123.5C 191.333,122.167 190.667,120.833 190,119.5C 189.667,120.167 189.333,120.833 189,121.5C 188.333,120.167 187.333,119.167 186,118.5C 184.497,118.835 183.164,118.835 182,118.5C 181.667,117.833 181.333,117.167 181,116.5C 179.211,116.377 177.378,116.377 175.5,116.5C 174.201,115.91 173.368,114.91 173,113.5C 171.84,115.797 170.84,115.464 170,112.5C 169.667,113.5 169.333,114.5 169,115.5C 168,114.167 167,112.833 166,111.5C 164.57,111.306 163.07,111.306 161.5,111.5C 158.77,110.99 156.603,109.656 155,107.5C 153.951,108.517 152.784,108.684 151.5,108C 152.888,107.111 152.722,106.611 151,106.5C 149.354,108.141 148.354,107.807 148,105.5C 147.667,105.833 147.333,106.167 147,106.5C 144.388,105.453 141.554,104.12 138.5,102.5C 139.542,98.3028 140.875,94.3028 142.5,90.5 Z"/></g>
<g><path style="opacity:0.99" fill="#b852f6" d="M 95.5,109.5 C 94.2652,109.721 93.2652,110.388 92.5,111.5C 91.1973,110.282 90.1973,110.615 89.5,112.5C 87.9299,112.306 86.4299,112.306 85,112.5C 84.6258,113.416 84.1258,114.25 83.5,115C 79.6811,116.626 76.5145,118.459 74,120.5C 73.6667,120.167 73.3333,119.833 73,119.5C 71.486,121.766 69.3193,122.932 66.5,123C 63.9332,125.543 61.0999,127.71 58,129.5C 57.5774,128.044 56.7441,127.544 55.5,128C 56.6537,128.914 56.487,129.747 55,130.5C 53.984,129.366 53.3173,129.699 53,131.5C 52.6667,131.167 52.3333,130.833 52,130.5C 50.3333,131.833 48.6667,133.167 47,134.5C 46.6667,134.167 46.3333,133.833 46,133.5C 44.4301,134.614 43.0968,135.947 42,137.5C 41.6667,136.833 41.3333,136.167 41,135.5C 40.0975,136.701 38.9308,137.535 37.5,138C 37.8333,138.333 38.1667,138.667 38.5,139C 37.2161,139.684 36.0495,139.517 35,138.5C 33.8129,140.044 33.4795,141.711 34,143.5C 34.3333,142.833 34.6667,142.167 35,141.5C 36.3333,142.833 37.6667,142.833 39,141.5C 39.5003,144.838 38.0003,146.505 34.5,146.5C 34.1367,148.911 35.1367,150.411 37.5,151C 36.0267,151.71 35.3601,152.876 35.5,154.5C 32.0502,142.034 28.8836,129.368 26,116.5C 23.4821,107.038 26.6488,100.538 35.5,97C 51.5,96.3333 67.5,96.3333 83.5,97C 89.7204,99.0534 93.7204,103.22 95.5,109.5 Z"/></g>
<g><path style="opacity:0.996" fill="#cb6ddd" d="M 138.5,102.5 C 141.554,104.12 144.388,105.453 147,106.5C 147.333,106.167 147.667,105.833 148,105.5C 148.354,107.807 149.354,108.141 151,106.5C 152.722,106.611 152.888,107.111 151.5,108C 152.784,108.684 153.951,108.517 155,107.5C 156.603,109.656 158.77,110.99 161.5,111.5C 163.07,111.306 164.57,111.306 166,111.5C 167,112.833 168,114.167 169,115.5C 169.333,114.5 169.667,113.5 170,112.5C 170.84,115.464 171.84,115.797 173,113.5C 173.368,114.91 174.201,115.91 175.5,116.5C 177.378,116.377 179.211,116.377 181,116.5C 181.333,117.167 181.667,117.833 182,118.5C 183.164,118.835 184.497,118.835 186,118.5C 187.333,119.167 188.333,120.167 189,121.5C 189.333,120.833 189.667,120.167 190,119.5C 190.667,120.833 191.333,122.167 192,123.5C 192.333,122.833 192.667,122.167 193,121.5C 194.53,122.636 195.863,123.636 197,124.5C 197.333,123.833 197.667,123.167 198,122.5C 198.359,125.544 199.026,125.878 200,123.5C 200.689,124.357 201.522,125.023 202.5,125.5C 204.102,124.45 204.935,125.117 205,127.5C 207.091,126.5 208.757,127.167 210,129.5C 210.414,129.043 210.914,128.709 211.5,128.5C 212.541,130.991 213.374,130.991 214,128.5C 216.542,129.216 219.042,130.716 221.5,133C 225.95,134.316 230.284,135.816 234.5,137.5C 235.716,136.998 236.883,136.665 238,136.5C 239.097,138.053 240.43,139.386 242,140.5C 242.667,137.833 243.333,137.833 244,140.5C 245.597,140.36 247.097,140.36 248.5,140.5C 249.298,140.957 249.631,141.624 249.5,142.5C 248.296,148.319 246.629,153.985 244.5,159.5C 243.778,159.082 243.278,158.416 243,157.5C 242.026,159.878 241.359,159.544 241,156.5C 239.883,156.665 238.716,156.998 237.5,157.5C 235.78,156.066 233.78,155.233 231.5,155C 231.833,154.667 232.167,154.333 232.5,154C 230.597,152.172 228.764,152.339 227,154.5C 226,153.167 225,151.833 224,150.5C 221.93,150.096 219.764,150.096 217.5,150.5C 215.912,149.99 214.745,148.99 214,147.5C 212.57,147.306 211.07,147.306 209.5,147.5C 208.304,147.154 208.304,146.654 209.5,146C 204.071,145.247 199.071,143.413 194.5,140.5C 193.158,141.902 192.324,141.569 192,139.5C 191.667,140.167 191.333,140.833 191,141.5C 190.167,140.5 189.333,139.5 188.5,138.5C 186.833,138.5 185.167,138.5 183.5,138.5C 181.615,137.391 179.615,136.557 177.5,136C 178.696,135.346 178.696,134.846 177.5,134.5C 176.808,135.025 176.308,135.692 176,136.5C 174.324,135.9 172.657,134.567 171,132.5C 170.026,134.878 169.359,134.544 169,131.5C 168.374,133.991 167.541,133.991 166.5,131.5C 165.914,131.709 165.414,132.043 165,132.5C 163.345,132.198 162.012,130.864 161,128.5C 159.111,129.089 157.111,129.423 155,129.5C 154.383,128.551 154.549,127.718 155.5,127C 154.256,126.544 153.423,127.044 153,128.5C 152.779,125.057 151.779,124.724 150,127.5C 149.558,125.321 148.558,124.655 147,125.5C 144.944,123.681 142.777,123.015 140.5,123.5C 139.52,122.019 138.353,120.685 137,119.5C 136.085,120.328 135.419,121.328 135,122.5C 134.768,121.263 134.268,120.263 133.5,119.5C 133.5,119.167 133.5,118.833 133.5,118.5C 133.5,118.167 133.5,117.833 133.5,117.5C 135.321,112.548 136.988,107.548 138.5,102.5 Z"/></g>
<g><path style="opacity:0.997" fill="#ab4cf9" d="M 133.5,118.5 C 133.5,118.833 133.5,119.167 133.5,119.5C 131.475,125.247 129.475,130.914 127.5,136.5C 127.565,136.062 127.399,135.728 127,135.5C 125.863,136.364 124.53,137.364 123,138.5C 122.667,138.167 122.333,137.833 122,137.5C 120.667,139.167 119.333,140.833 118,142.5C 117.586,142.043 117.086,141.709 116.5,141.5C 114.851,142.706 113.351,144.039 112,145.5C 111.586,145.043 111.086,144.709 110.5,144.5C 108.615,145.609 106.615,146.443 104.5,147C 105.654,147.914 105.487,148.747 104,149.5C 103.667,149.167 103.333,148.833 103,148.5C 98.807,150.827 95.1404,153.16 92,155.5C 91.586,155.043 91.086,154.709 90.5,154.5C 84.5093,156.863 78.676,160.196 73,164.5C 72.6667,164.167 72.3333,163.833 72,163.5C 71,164.833 70,166.167 69,167.5C 67.6235,167.794 65.6235,167.794 63,167.5C 60.2133,169.047 57.8799,171.047 56,173.5C 54.7025,172.216 53.5358,172.383 52.5,174C 52.8333,174.333 53.1667,174.667 53.5,175C 51.1116,175.303 48.9449,176.137 47,177.5C 46.6667,177.167 46.3333,176.833 46,176.5C 44.8347,178.728 43.3347,180.061 41.5,180.5C 39.6755,175.064 38.3422,169.397 37.5,163.5C 40.1303,161.788 42.797,160.121 45.5,158.5C 47.1017,159.55 47.935,158.883 48,156.5C 48.3333,156.833 48.6667,157.167 49,157.5C 51,156.167 53,154.833 55,153.5C 55.3333,153.833 55.6667,154.167 56,154.5C 57.353,153.315 58.5197,151.981 59.5,150.5C 60.8425,151.902 61.6758,151.569 62,149.5C 62.3333,150.167 62.6667,150.833 63,151.5C 64.115,149.092 65.7816,147.092 68,145.5C 68.3333,146.167 68.6667,146.833 69,147.5C 70.4907,145.996 72.324,145.163 74.5,145C 74.1667,144.667 73.8333,144.333 73.5,144C 76.1667,143 78.8333,142 81.5,141C 81.1667,140.667 80.8333,140.333 80.5,140C 83.5087,140.16 85.6754,138.993 87,136.5C 88.016,137.634 88.6827,137.301 89,135.5C 89.3333,135.833 89.6667,136.167 90,136.5C 91.0674,135.809 92.2341,135.309 93.5,135C 92.8333,134.667 92.1667,134.333 91.5,134C 93.7271,133.879 95.5604,133.046 97,131.5C 99.7367,132.468 101.737,131.468 103,128.5C 104.84,129.833 105.34,129.666 104.5,128C 106.676,127.837 108.509,127.004 110,125.5C 112.092,125.071 114.092,123.738 116,121.5C 116.333,122.167 116.667,122.833 117,123.5C 121.039,118.977 126.539,117.311 133.5,118.5 Z"/></g>
<g><path style="opacity:0.999" fill="#cf73d8" d="M 133.5,119.5 C 134.268,120.263 134.768,121.263 135,122.5C 135.419,121.328 136.085,120.328 137,119.5C 138.353,120.685 139.52,122.019 140.5,123.5C 142.777,123.015 144.944,123.681 147,125.5C 148.558,124.655 149.558,125.321 150,127.5C 151.779,124.724 152.779,125.057 153,128.5C 153.423,127.044 154.256,126.544 155.5,127C 154.549,127.718 154.383,128.551 155,129.5C 157.111,129.423 159.111,129.089 161,128.5C 162.012,130.864 163.345,132.198 165,132.5C 165.414,132.043 165.914,131.709 166.5,131.5C 167.541,133.991 168.374,133.991 169,131.5C 169.359,134.544 170.026,134.878 171,132.5C 172.657,134.567 174.324,135.9 176,136.5C 176.308,135.692 176.808,135.025 177.5,134.5C 178.696,134.846 178.696,135.346 177.5,136C 179.615,136.557 181.615,137.391 183.5,138.5C 185.167,138.5 186.833,138.5 188.5,138.5C 189.333,139.5 190.167,140.5 191,141.5C 191.333,140.833 191.667,140.167 192,139.5C 192.324,141.569 193.158,141.902 194.5,140.5C 199.071,143.413 204.071,145.247 209.5,146C 208.304,146.654 208.304,147.154 209.5,147.5C 211.07,147.306 212.57,147.306 214,147.5C 214.745,148.99 215.912,149.99 217.5,150.5C 219.764,150.096 221.93,150.096 224,150.5C 225,151.833 226,153.167 227,154.5C 228.764,152.339 230.597,152.172 232.5,154C 232.167,154.333 231.833,154.667 231.5,155C 233.78,155.233 235.78,156.066 237.5,157.5C 238.716,156.998 239.883,156.665 241,156.5C 241.359,159.544 242.026,159.878 243,157.5C 243.278,158.416 243.778,159.082 244.5,159.5C 242.87,166.051 240.87,172.385 238.5,178.5C 236.914,177.587 235.414,177.587 234,178.5C 233.685,175.853 232.518,175.187 230.5,176.5C 227.092,175.387 223.592,173.72 220,171.5C 218.984,172.634 218.317,172.301 218,170.5C 215.46,171.876 213.46,171.21 212,168.5C 210.667,168.5 209.333,168.5 208,168.5C 206.667,167.833 205.667,166.833 205,165.5C 204.667,166.5 204.333,167.5 204,168.5C 203.558,166.321 202.558,165.655 201,166.5C 199.829,165.107 198.329,164.273 196.5,164C 197.696,163.346 197.696,162.846 196.5,162.5C 195.833,163.167 195.167,163.833 194.5,164.5C 194.891,163.109 194.058,162.109 192,161.5C 190.463,161.087 188.796,161.087 187,161.5C 185.503,160.523 184.003,159.523 182.5,158.5C 180.655,159.938 179.489,159.604 179,157.5C 178.667,157.833 178.333,158.167 178,158.5C 176.348,157.932 174.682,156.599 173,154.5C 172.667,155.167 172.333,155.833 172,156.5C 171.581,155.328 170.915,154.328 170,153.5C 168.333,153.5 166.667,153.5 165,153.5C 163.903,151.947 162.57,150.614 161,149.5C 160.333,150.167 159.667,150.833 159,151.5C 157.846,150.257 156.512,149.257 155,148.5C 154.667,149.167 154.333,149.833 154,150.5C 153.716,148.114 152.716,147.448 151,148.5C 150.717,145.258 149.883,144.924 148.5,147.5C 147.201,146.91 146.368,145.91 146,144.5C 140.387,145.359 135.22,144.026 130.5,140.5C 129.914,140.709 129.414,141.043 129,141.5C 128.722,140.584 128.222,139.918 127.5,139.5C 127.5,138.5 127.5,137.5 127.5,136.5C 129.475,130.914 131.475,125.247 133.5,119.5 Z"/></g>
<g><path style="opacity:1" fill="#b250f8" d="M 95.5,109.5 C 97.0598,111.954 98.0598,114.62 98.5,117.5C 110.167,117.5 121.833,117.5 133.5,117.5C 133.5,117.833 133.5,118.167 133.5,118.5C 126.539,117.311 121.039,118.977 117,123.5C 116.667,122.833 116.333,122.167 116,121.5C 114.092,123.738 112.092,125.071 110,125.5C 108.509,127.004 106.676,127.837 104.5,128C 105.34,129.666 104.84,129.833 103,128.5C 101.737,131.468 99.7367,132.468 97,131.5C 95.5604,133.046 93.7271,133.879 91.5,134C 92.1667,134.333 92.8333,134.667 93.5,135C 92.2341,135.309 91.0674,135.809 90,136.5C 89.6667,136.167 89.3333,135.833 89,135.5C 88.6827,137.301 88.016,137.634 87,136.5C 85.6754,138.993 83.5087,140.16 80.5,140C 80.8333,140.333 81.1667,140.667 81.5,141C 78.8333,142 76.1667,143 73.5,144C 73.8333,144.333 74.1667,144.667 74.5,145C 72.324,145.163 70.4907,145.996 69,147.5C 68.6667,146.833 68.3333,146.167 68,145.5C 65.7816,147.092 64.115,149.092 63,151.5C 62.6667,150.833 62.3333,150.167 62,149.5C 61.6758,151.569 60.8425,151.902 59.5,150.5C 58.5197,151.981 57.353,153.315 56,154.5C 55.6667,154.167 55.3333,153.833 55,153.5C 53,154.833 51,156.167 49,157.5C 48.6667,157.167 48.3333,156.833 48,156.5C 47.935,158.883 47.1017,159.55 45.5,158.5C 42.797,160.121 40.1303,161.788 37.5,163.5C 36.3428,160.727 35.6761,157.727 35.5,154.5C 35.3601,152.876 36.0267,151.71 37.5,151C 35.1367,150.411 34.1367,148.911 34.5,146.5C 38.0003,146.505 39.5003,144.838 39,141.5C 37.6667,142.833 36.3333,142.833 35,141.5C 34.6667,142.167 34.3333,142.833 34,143.5C 33.4795,141.711 33.8129,140.044 35,138.5C 36.0495,139.517 37.2161,139.684 38.5,139C 38.1667,138.667 37.8333,138.333 37.5,138C 38.9308,137.535 40.0975,136.701 41,135.5C 41.3333,136.167 41.6667,136.833 42,137.5C 43.0968,135.947 44.4301,134.614 46,133.5C 46.3333,133.833 46.6667,134.167 47,134.5C 48.6667,133.167 50.3333,131.833 52,130.5C 52.3333,130.833 52.6667,131.167 53,131.5C 53.3173,129.699 53.984,129.366 55,130.5C 56.487,129.747 56.6537,128.914 55.5,128C 56.7441,127.544 57.5774,128.044 58,129.5C 61.0999,127.71 63.9332,125.543 66.5,123C 69.3193,122.932 71.486,121.766 73,119.5C 73.3333,119.833 73.6667,120.167 74,120.5C 76.5145,118.459 79.6811,116.626 83.5,115C 84.1258,114.25 84.6258,113.416 85,112.5C 86.4299,112.306 87.9299,112.306 89.5,112.5C 90.1973,110.615 91.1973,110.282 92.5,111.5C 93.2652,110.388 94.2652,109.721 95.5,109.5 Z"/></g>
<g><path style="opacity:0.999" fill="#d277d4" d="M 127.5,139.5 C 128.222,139.918 128.722,140.584 129,141.5C 129.414,141.043 129.914,140.709 130.5,140.5C 135.22,144.026 140.387,145.359 146,144.5C 146.368,145.91 147.201,146.91 148.5,147.5C 149.883,144.924 150.717,145.258 151,148.5C 152.716,147.448 153.716,148.114 154,150.5C 154.333,149.833 154.667,149.167 155,148.5C 156.512,149.257 157.846,150.257 159,151.5C 159.667,150.833 160.333,150.167 161,149.5C 162.57,150.614 163.903,151.947 165,153.5C 166.667,153.5 168.333,153.5 170,153.5C 170.915,154.328 171.581,155.328 172,156.5C 172.333,155.833 172.667,155.167 173,154.5C 174.682,156.599 176.348,157.932 178,158.5C 178.333,158.167 178.667,157.833 179,157.5C 179.489,159.604 180.655,159.938 182.5,158.5C 184.003,159.523 185.503,160.523 187,161.5C 188.796,161.087 190.463,161.087 192,161.5C 194.058,162.109 194.891,163.109 194.5,164.5C 195.167,163.833 195.833,163.167 196.5,162.5C 197.696,162.846 197.696,163.346 196.5,164C 198.329,164.273 199.829,165.107 201,166.5C 202.558,165.655 203.558,166.321 204,168.5C 204.333,167.5 204.667,166.5 205,165.5C 205.667,166.833 206.667,167.833 208,168.5C 209.333,168.5 210.667,168.5 212,168.5C 213.46,171.21 215.46,171.876 218,170.5C 218.317,172.301 218.984,172.634 220,171.5C 223.592,173.72 227.092,175.387 230.5,176.5C 232.518,175.187 233.685,175.853 234,178.5C 235.414,177.587 236.914,177.587 238.5,178.5C 238.072,181.785 237.072,184.785 235.5,187.5C 233.549,187.773 232.049,187.107 231,185.5C 230.667,185.833 230.333,186.167 230,186.5C 227.713,185.526 225.713,184.193 224,182.5C 222.467,182.944 220.967,183.277 219.5,183.5C 218.201,182.91 217.368,181.91 217,180.5C 216.667,181.167 216.333,181.833 216,182.5C 214.333,181.167 212.667,179.833 211,178.5C 210.667,179.167 210.333,179.833 210,180.5C 209.716,178.114 208.716,177.448 207,178.5C 205.054,176.006 202.721,175.339 200,176.5C 198.901,173.961 197.234,173.295 195,174.5C 192.968,172.169 190.801,170.836 188.5,170.5C 187.833,170.833 187.167,171.167 186.5,171.5C 185.23,170.438 184.063,169.438 183,168.5C 182.667,168.833 182.333,169.167 182,169.5C 177.896,167.742 173.729,166.075 169.5,164.5C 168.558,164.608 167.725,164.941 167,165.5C 165.988,163.136 164.655,161.802 163,161.5C 160.711,162.022 158.544,161.355 156.5,159.5C 154.844,161.022 153.677,160.689 153,158.5C 152.667,158.833 152.333,159.167 152,159.5C 151.64,156.572 150.307,155.906 148,157.5C 146.278,157.389 146.112,156.889 147.5,156C 145.702,154.495 143.868,154.328 142,155.5C 140.691,153.109 139.691,153.109 139,155.5C 138.71,153.956 138.044,152.623 137,151.5C 136.667,152.167 136.333,152.833 136,153.5C 133.828,152.415 131.828,151.081 130,149.5C 128.34,148.834 126.506,148.834 124.5,149.5C 124.899,145.884 125.899,142.55 127.5,139.5 Z"/></g>
<g><path style="opacity:0.998" fill="#a449fa" d="M 127.5,136.5 C 127.5,137.5 127.5,138.5 127.5,139.5C 125.899,142.55 124.899,145.884 124.5,149.5C 123.054,152.254 122.054,155.254 121.5,158.5C 121.5,159.167 121.167,159.5 120.5,159.5C 119.25,159.577 118.417,160.244 118,161.5C 117.667,161.167 117.333,160.833 117,160.5C 115.933,161.191 114.766,161.691 113.5,162C 114.654,162.914 114.487,163.747 113,164.5C 109.385,164.809 106.052,166.476 103,169.5C 102.667,169.167 102.333,168.833 102,168.5C 101.424,171.124 100.09,171.791 98,170.5C 95.6959,172.068 93.1959,173.235 90.5,174C 88.8326,176.335 86.9993,178.169 85,179.5C 83.984,178.366 83.3173,178.699 83,180.5C 82.6667,179.833 82.3333,179.167 82,178.5C 80.6667,179.833 79.3333,181.167 78,182.5C 77.6667,181.833 77.3333,181.167 77,180.5C 75.3333,182.167 73.6667,183.833 72,185.5C 71.6667,184.833 71.3333,184.167 71,183.5C 70.3333,184.833 69.6667,186.167 69,187.5C 65.2783,186.708 62.2783,188.042 60,191.5C 59.6667,191.167 59.3333,190.833 59,190.5C 57.0551,191.863 54.8884,192.697 52.5,193C 53.1667,193.333 53.8333,193.667 54.5,194C 52.1523,194.346 50.3189,195.513 49,197.5C 48.0138,196.829 46.8471,196.829 45.5,197.5C 43.6755,192.064 42.3422,186.397 41.5,180.5C 43.3347,180.061 44.8347,178.728 46,176.5C 46.3333,176.833 46.6667,177.167 47,177.5C 48.9449,176.137 51.1116,175.303 53.5,175C 53.1667,174.667 52.8333,174.333 52.5,174C 53.5358,172.383 54.7025,172.216 56,173.5C 57.8799,171.047 60.2133,169.047 63,167.5C 65.6235,167.794 67.6235,167.794 69,167.5C 70,166.167 71,164.833 72,163.5C 72.3333,163.833 72.6667,164.167 73,164.5C 78.676,160.196 84.5093,156.863 90.5,154.5C 91.086,154.709 91.586,155.043 92,155.5C 95.1404,153.16 98.807,150.827 103,148.5C 103.333,148.833 103.667,149.167 104,149.5C 105.487,148.747 105.654,147.914 104.5,147C 106.615,146.443 108.615,145.609 110.5,144.5C 111.086,144.709 111.586,145.043 112,145.5C 113.351,144.039 114.851,142.706 116.5,141.5C 117.086,141.709 117.586,142.043 118,142.5C 119.333,140.833 120.667,139.167 122,137.5C 122.333,137.833 122.667,138.167 123,138.5C 124.53,137.364 125.863,136.364 127,135.5C 127.399,135.728 127.565,136.062 127.5,136.5 Z"/></g>
<g><path style="opacity:0.998" fill="#d57ad1" d="M 235.5,187.5 C 234.922,192.165 233.589,196.499 231.5,200.5C 230.686,196.731 228.519,195.397 225,196.5C 223.54,194.578 221.873,193.911 220,194.5C 219.085,193.672 218.419,192.672 218,191.5C 216.172,193.807 214.506,193.474 213,190.5C 210.684,191.367 208.684,190.701 207,188.5C 206.667,188.833 206.333,189.167 206,189.5C 203.366,188.178 200.7,186.511 198,184.5C 197.333,185.833 196.667,185.833 196,184.5C 195.667,185.167 195.333,185.833 195,186.5C 192.224,184.707 189.557,183.04 187,181.5C 186.667,182.167 186.333,182.833 186,183.5C 184.225,181.606 182.225,179.939 180,178.5C 178.657,179.214 177.324,178.88 176,177.5C 175.667,178.167 175.333,178.833 175,179.5C 173.345,179.198 172.012,177.864 171,175.5C 170.667,176.167 170.333,176.833 170,177.5C 167.817,175.924 165.651,174.258 163.5,172.5C 162.808,173.025 162.308,173.692 162,174.5C 160.937,173.562 159.77,172.562 158.5,171.5C 157.284,172.002 156.117,172.335 155,172.5C 153.333,170.833 151.667,169.167 150,167.5C 149.333,170.167 148.667,170.167 148,167.5C 147.667,168.167 147.333,168.833 147,169.5C 145.829,167.384 144.329,166.718 142.5,167.5C 141.029,166.583 139.529,165.583 138,164.5C 136.84,166.797 135.84,166.464 135,163.5C 134.667,163.833 134.333,164.167 134,164.5C 132.738,162.697 131.071,161.364 129,160.5C 128.333,161.167 127.667,161.833 127,162.5C 125.226,161.035 123.392,159.702 121.5,158.5C 122.054,155.254 123.054,152.254 124.5,149.5C 126.506,148.834 128.34,148.834 130,149.5C 131.828,151.081 133.828,152.415 136,153.5C 136.333,152.833 136.667,152.167 137,151.5C 138.044,152.623 138.71,153.956 139,155.5C 139.691,153.109 140.691,153.109 142,155.5C 143.868,154.328 145.702,154.495 147.5,156C 146.112,156.889 146.278,157.389 148,157.5C 150.307,155.906 151.64,156.572 152,159.5C 152.333,159.167 152.667,158.833 153,158.5C 153.677,160.689 154.844,161.022 156.5,159.5C 158.544,161.355 160.711,162.022 163,161.5C 164.655,161.802 165.988,163.136 167,165.5C 167.725,164.941 168.558,164.608 169.5,164.5C 173.729,166.075 177.896,167.742 182,169.5C 182.333,169.167 182.667,168.833 183,168.5C 184.063,169.438 185.23,170.438 186.5,171.5C 187.167,171.167 187.833,170.833 188.5,170.5C 190.801,170.836 192.968,172.169 195,174.5C 197.234,173.295 198.901,173.961 200,176.5C 202.721,175.339 205.054,176.006 207,178.5C 208.716,177.448 209.716,178.114 210,180.5C 210.333,179.833 210.667,179.167 211,178.5C 212.667,179.833 214.333,181.167 216,182.5C 216.333,181.833 216.667,181.167 217,180.5C 217.368,181.91 218.201,182.91 219.5,183.5C 220.967,183.277 222.467,182.944 224,182.5C 225.713,184.193 227.713,185.526 230,186.5C 230.333,186.167 230.667,185.833 231,185.5C 232.049,187.107 233.549,187.773 235.5,187.5 Z"/></g>
<g><path style="opacity:0.998" fill="#d77dcf" d="M 121.5,158.5 C 123.392,159.702 125.226,161.035 127,162.5C 127.667,161.833 128.333,161.167 129,160.5C 131.071,161.364 132.738,162.697 134,164.5C 134.333,164.167 134.667,163.833 135,163.5C 135.84,166.464 136.84,166.797 138,164.5C 139.529,165.583 141.029,166.583 142.5,167.5C 144.329,166.718 145.829,167.384 147,169.5C 147.333,168.833 147.667,168.167 148,167.5C 148.667,170.167 149.333,170.167 150,167.5C 151.667,169.167 153.333,170.833 155,172.5C 156.117,172.335 157.284,172.002 158.5,171.5C 159.77,172.562 160.937,173.562 162,174.5C 162.308,173.692 162.808,173.025 163.5,172.5C 165.651,174.258 167.817,175.924 170,177.5C 170.333,176.833 170.667,176.167 171,175.5C 172.012,177.864 173.345,179.198 175,179.5C 175.333,178.833 175.667,178.167 176,177.5C 177.324,178.88 178.657,179.214 180,178.5C 182.225,179.939 184.225,181.606 186,183.5C 186.333,182.833 186.667,182.167 187,181.5C 189.557,183.04 192.224,184.707 195,186.5C 195.333,185.833 195.667,185.167 196,184.5C 196.667,185.833 197.333,185.833 198,184.5C 200.7,186.511 203.366,188.178 206,189.5C 206.333,189.167 206.667,188.833 207,188.5C 208.684,190.701 210.684,191.367 213,190.5C 214.506,193.474 216.172,193.807 218,191.5C 218.419,192.672 219.085,193.672 220,194.5C 221.873,193.911 223.54,194.578 225,196.5C 228.519,195.397 230.686,196.731 231.5,200.5C 231.279,203.067 230.612,205.401 229.5,207.5C 229.079,205.09 227.746,203.257 225.5,202C 221.675,200.725 218.175,199.558 215,198.5C 213.413,199.727 212.079,199.394 211,197.5C 210.667,197.833 210.333,198.167 210,198.5C 208.856,196.083 207.19,195.416 205,196.5C 202.838,193.672 200.171,192.672 197,193.5C 194.817,191.553 192.484,189.886 190,188.5C 189.667,189.167 189.333,189.833 189,190.5C 187.846,189.257 186.512,188.257 185,187.5C 184.667,188.167 184.333,188.833 184,189.5C 181.745,187.045 179.078,185.045 176,183.5C 174.314,186.022 172.981,185.689 172,182.5C 170.575,181.921 168.908,181.921 167,182.5C 165.863,181.636 164.53,180.636 163,179.5C 161.732,179.616 160.398,179.949 159,180.5C 158.683,178.699 158.016,178.366 157,179.5C 155.933,178.809 154.766,178.309 153.5,178C 154.696,177.346 154.696,176.846 153.5,176.5C 152.117,179.076 151.283,178.742 151,175.5C 149.667,175.5 148.333,175.5 147,175.5C 145.295,173.023 143.295,171.689 141,171.5C 140.026,173.878 139.359,173.544 139,170.5C 138.667,171.167 138.333,171.833 138,172.5C 136.806,170.475 135.306,170.141 133.5,171.5C 132.304,171.154 132.304,170.654 133.5,170C 131.376,168.418 129.21,168.251 127,169.5C 126.085,168.672 125.419,167.672 125,166.5C 124.439,167.022 123.772,167.355 123,167.5C 121.989,167.108 121.489,166.441 121.5,165.5C 120.482,166.193 119.482,166.859 118.5,167.5C 119.371,164.888 120.037,162.221 120.5,159.5C 121.167,159.5 121.5,159.167 121.5,158.5 Z"/></g>
<g><path style="opacity:0.997" fill="#9f47fa" d="M 120.5,159.5 C 120.037,162.221 119.371,164.888 118.5,167.5C 117.833,169.833 117.167,172.167 116.5,174.5C 115.434,176.701 114.767,179.035 114.5,181.5C 114.011,182.995 113.345,184.329 112.5,185.5C 112.404,181.689 111.738,181.689 110.5,185.5C 109.227,185.254 108.06,185.254 107,185.5C 105.986,187.621 103.986,189.288 101,190.5C 99.9505,189.483 98.7839,189.316 97.5,190C 98.1667,190.333 98.8333,190.667 99.5,191C 97.6711,191.273 96.1711,192.107 95,193.5C 94.586,193.043 94.086,192.709 93.5,192.5C 90.8699,194.387 88.7032,196.054 87,197.5C 85.6667,197.5 84.3333,197.5 83,197.5C 82.6411,200.544 81.9745,200.878 81,198.5C 80,199.833 79,201.167 78,202.5C 77.3086,200.109 76.3086,200.109 75,202.5C 74.6667,202.167 74.3333,201.833 74,201.5C 73.6411,204.544 72.9745,204.878 72,202.5C 69.9794,206.527 67.3127,207.86 64,206.5C 63.6667,207.5 63.3333,208.5 63,209.5C 60.6696,208.844 59.0029,209.844 58,212.5C 57.0255,210.122 56.3589,210.456 56,213.5C 55.6667,212.833 55.3333,212.167 55,211.5C 54,212.833 53,214.167 52,215.5C 51.6667,215.167 51.3333,214.833 51,214.5C 50.51,215.793 50.3433,217.127 50.5,218.5C 48.0745,211.793 46.4078,204.793 45.5,197.5C 46.8471,196.829 48.0138,196.829 49,197.5C 50.3189,195.513 52.1523,194.346 54.5,194C 53.8333,193.667 53.1667,193.333 52.5,193C 54.8884,192.697 57.0551,191.863 59,190.5C 59.3333,190.833 59.6667,191.167 60,191.5C 62.2783,188.042 65.2783,186.708 69,187.5C 69.6667,186.167 70.3333,184.833 71,183.5C 71.3333,184.167 71.6667,184.833 72,185.5C 73.6667,183.833 75.3333,182.167 77,180.5C 77.3333,181.167 77.6667,181.833 78,182.5C 79.3333,181.167 80.6667,179.833 82,178.5C 82.3333,179.167 82.6667,179.833 83,180.5C 83.3173,178.699 83.984,178.366 85,179.5C 86.9993,178.169 88.8326,176.335 90.5,174C 93.1959,173.235 95.6959,172.068 98,170.5C 100.09,171.791 101.424,171.124 102,168.5C 102.333,168.833 102.667,169.167 103,169.5C 106.052,166.476 109.385,164.809 113,164.5C 114.487,163.747 114.654,162.914 113.5,162C 114.766,161.691 115.933,161.191 117,160.5C 117.333,160.833 117.667,161.167 118,161.5C 118.417,160.244 119.25,159.577 120.5,159.5 Z"/></g>
<g><path style="opacity:0.999" fill="#d87fcc" d="M 229.5,207.5 C 229.072,210.785 228.072,213.785 226.5,216.5C 225.829,215.153 225.829,213.986 226.5,213C 225.333,212.5 224.5,211.667 224,210.5C 223.667,211.167 223.333,211.833 223,212.5C 219.762,210.531 216.429,208.864 213,207.5C 211.984,208.634 211.317,208.301 211,206.5C 210.374,208.991 209.541,208.991 208.5,206.5C 207.914,206.709 207.414,207.043 207,207.5C 205.667,206.167 204.333,204.833 203,203.5C 200.981,204.765 198.981,204.765 197,203.5C 195.667,202.167 194.333,200.833 193,199.5C 192.586,199.957 192.086,200.291 191.5,200.5C 189.008,198.819 186.508,198.152 184,198.5C 182.691,196.109 181.691,196.109 181,198.5C 179.333,196.833 177.667,195.167 176,193.5C 175.667,194.5 175.333,195.5 175,196.5C 173.429,195.796 171.762,194.463 170,192.5C 169.667,192.833 169.333,193.167 169,193.5C 166.149,191.655 162.982,190.489 159.5,190C 158.638,187.266 157.805,187.099 157,189.5C 155.445,187.854 153.779,187.521 152,188.5C 151.935,186.117 151.102,185.45 149.5,186.5C 148.23,185.438 147.063,184.438 146,183.5C 145.667,184.167 145.333,184.833 145,185.5C 143.615,184.449 142.615,183.116 142,181.5C 141.667,182.5 141.333,183.5 141,184.5C 137.574,180.521 133.408,179.021 128.5,180C 129.5,179.667 130.5,179.333 131.5,179C 129.899,178.727 128.399,178.227 127,177.5C 126.667,177.833 126.333,178.167 126,178.5C 125.333,174.5 124.667,174.5 124,178.5C 121.866,177.008 119.866,175.341 118,173.5C 117.617,174.056 117.117,174.389 116.5,174.5C 117.167,172.167 117.833,169.833 118.5,167.5C 119.482,166.859 120.482,166.193 121.5,165.5C 121.489,166.441 121.989,167.108 123,167.5C 123.772,167.355 124.439,167.022 125,166.5C 125.419,167.672 126.085,168.672 127,169.5C 129.21,168.251 131.376,168.418 133.5,170C 132.304,170.654 132.304,171.154 133.5,171.5C 135.306,170.141 136.806,170.475 138,172.5C 138.333,171.833 138.667,171.167 139,170.5C 139.359,173.544 140.026,173.878 141,171.5C 143.295,171.689 145.295,173.023 147,175.5C 148.333,175.5 149.667,175.5 151,175.5C 151.283,178.742 152.117,179.076 153.5,176.5C 154.696,176.846 154.696,177.346 153.5,178C 154.766,178.309 155.933,178.809 157,179.5C 158.016,178.366 158.683,178.699 159,180.5C 160.398,179.949 161.732,179.616 163,179.5C 164.53,180.636 165.863,181.636 167,182.5C 168.908,181.921 170.575,181.921 172,182.5C 172.981,185.689 174.314,186.022 176,183.5C 179.078,185.045 181.745,187.045 184,189.5C 184.333,188.833 184.667,188.167 185,187.5C 186.512,188.257 187.846,189.257 189,190.5C 189.333,189.833 189.667,189.167 190,188.5C 192.484,189.886 194.817,191.553 197,193.5C 200.171,192.672 202.838,193.672 205,196.5C 207.19,195.416 208.856,196.083 210,198.5C 210.333,198.167 210.667,197.833 211,197.5C 212.079,199.394 213.413,199.727 215,198.5C 218.175,199.558 221.675,200.725 225.5,202C 227.746,203.257 229.079,205.09 229.5,207.5 Z"/></g>
<g><path style="opacity:0.999" fill="#da81ca" d="M 226.5,216.5 C 226.59,219.152 225.924,221.485 224.5,223.5C 224.646,221.058 223.813,220.391 222,221.5C 220.915,219.627 219.582,217.96 218,216.5C 216.413,217.727 215.079,217.394 214,215.5C 212.691,217.891 211.691,217.891 211,215.5C 210.667,215.833 210.333,216.167 210,216.5C 208.055,215.137 205.888,214.303 203.5,214C 204.34,212.334 203.84,212.167 202,213.5C 201.667,212.833 201.333,212.167 201,211.5C 199.381,210.917 197.548,210.917 195.5,211.5C 194.154,209.121 192.487,207.788 190.5,207.5C 188.939,208.347 187.439,208.014 186,206.5C 184.192,206.888 182.525,206.888 181,206.5C 179.345,206.198 178.012,204.864 177,202.5C 176.586,202.957 176.086,203.291 175.5,203.5C 173.885,202.846 172.218,202.346 170.5,202C 170.833,201.667 171.167,201.333 171.5,201C 169.597,199.172 167.764,199.339 166,201.5C 165.558,199.321 164.558,198.655 163,199.5C 162.333,196.833 161.667,196.833 161,199.5C 159.513,198.747 159.346,197.914 160.5,197C 158.731,195.981 157.064,195.814 155.5,196.5C 153.866,196.032 152.7,195.032 152,193.5C 151.667,194.167 151.333,194.833 151,195.5C 148.705,195.311 146.705,193.977 145,191.5C 143.192,191.888 141.525,191.888 140,191.5C 139.019,188.345 137.685,188.012 136,190.5C 135,189.5 134,188.5 133,187.5C 132.026,189.878 131.359,189.544 131,186.5C 129.84,188.797 128.84,188.464 128,185.5C 126,184.167 124,184.167 122,185.5C 121.751,184.376 121.251,183.376 120.5,182.5C 118.376,183.529 116.376,183.196 114.5,181.5C 114.767,179.035 115.434,176.701 116.5,174.5C 117.117,174.389 117.617,174.056 118,173.5C 119.866,175.341 121.866,177.008 124,178.5C 124.667,174.5 125.333,174.5 126,178.5C 126.333,178.167 126.667,177.833 127,177.5C 128.399,178.227 129.899,178.727 131.5,179C 130.5,179.333 129.5,179.667 128.5,180C 133.408,179.021 137.574,180.521 141,184.5C 141.333,183.5 141.667,182.5 142,181.5C 142.615,183.116 143.615,184.449 145,185.5C 145.333,184.833 145.667,184.167 146,183.5C 147.063,184.438 148.23,185.438 149.5,186.5C 151.102,185.45 151.935,186.117 152,188.5C 153.779,187.521 155.445,187.854 157,189.5C 157.805,187.099 158.638,187.266 159.5,190C 162.982,190.489 166.149,191.655 169,193.5C 169.333,193.167 169.667,192.833 170,192.5C 171.762,194.463 173.429,195.796 175,196.5C 175.333,195.5 175.667,194.5 176,193.5C 177.667,195.167 179.333,196.833 181,198.5C 181.691,196.109 182.691,196.109 184,198.5C 186.508,198.152 189.008,198.819 191.5,200.5C 192.086,200.291 192.586,199.957 193,199.5C 194.333,200.833 195.667,202.167 197,203.5C 198.981,204.765 200.981,204.765 203,203.5C 204.333,204.833 205.667,206.167 207,207.5C 207.414,207.043 207.914,206.709 208.5,206.5C 209.541,208.991 210.374,208.991 211,206.5C 211.317,208.301 211.984,208.634 213,207.5C 216.429,208.864 219.762,210.531 223,212.5C 223.333,211.833 223.667,211.167 224,210.5C 224.5,211.667 225.333,212.5 226.5,213C 225.829,213.986 225.829,215.153 226.5,216.5 Z"/></g>
<g><path style="opacity:0.999" fill="#dc84c8" d="M 114.5,181.5 C 116.376,183.196 118.376,183.529 120.5,182.5C 121.251,183.376 121.751,184.376 122,185.5C 124,184.167 126,184.167 128,185.5C 128.84,188.464 129.84,188.797 131,186.5C 131.359,189.544 132.026,189.878 133,187.5C 134,188.5 135,189.5 136,190.5C 137.685,188.012 139.019,188.345 140,191.5C 141.525,191.888 143.192,191.888 145,191.5C 146.705,193.977 148.705,195.311 151,195.5C 151.333,194.833 151.667,194.167 152,193.5C 152.7,195.032 153.866,196.032 155.5,196.5C 157.064,195.814 158.731,195.981 160.5,197C 159.346,197.914 159.513,198.747 161,199.5C 161.667,196.833 162.333,196.833 163,199.5C 164.558,198.655 165.558,199.321 166,201.5C 167.764,199.339 169.597,199.172 171.5,201C 171.167,201.333 170.833,201.667 170.5,202C 172.218,202.346 173.885,202.846 175.5,203.5C 176.086,203.291 176.586,202.957 177,202.5C 178.012,204.864 179.345,206.198 181,206.5C 182.525,206.888 184.192,206.888 186,206.5C 187.439,208.014 188.939,208.347 190.5,207.5C 192.487,207.788 194.154,209.121 195.5,211.5C 197.548,210.917 199.381,210.917 201,211.5C 201.333,212.167 201.667,212.833 202,213.5C 203.84,212.167 204.34,212.334 203.5,214C 205.888,214.303 208.055,215.137 210,216.5C 210.333,216.167 210.667,215.833 211,215.5C 211.691,217.891 212.691,217.891 214,215.5C 215.079,217.394 216.413,217.727 218,216.5C 219.582,217.96 220.915,219.627 222,221.5C 223.813,220.391 224.646,221.058 224.5,223.5C 224.405,225.786 223.738,227.786 222.5,229.5C 221.841,226.592 221.007,226.258 220,228.5C 216.198,227.47 211.865,225.47 207,222.5C 205.251,223.299 203.918,222.632 203,220.5C 199.927,220.938 196.927,220.271 194,218.5C 193.667,218.833 193.333,219.167 193,219.5C 191.345,219.198 190.012,217.864 189,215.5C 188.667,216.167 188.333,216.833 188,217.5C 186.179,215.713 184.012,214.38 181.5,213.5C 180.808,214.025 180.308,214.692 180,215.5C 177.875,211.725 175.209,210.725 172,212.5C 170.004,210.95 167.838,209.616 165.5,208.5C 164.914,208.709 164.414,209.043 164,209.5C 163,208.167 162,206.833 161,205.5C 160.667,206.167 160.333,206.833 160,207.5C 157.617,205.725 154.95,204.392 152,203.5C 149.709,204.311 147.875,203.477 146.5,201C 144.888,200.28 143.388,200.446 142,201.5C 140.902,200.033 139.402,199.199 137.5,199C 137.833,198.667 138.167,198.333 138.5,198C 136.109,196.965 133.776,196.798 131.5,197.5C 129.5,196.167 127.5,194.833 125.5,193.5C 124.833,193.833 124.167,194.167 123.5,194.5C 120.167,192.833 116.833,191.167 113.5,189.5C 112.817,189.863 112.15,190.196 111.5,190.5C 112.038,188.883 112.371,187.216 112.5,185.5C 113.345,184.329 114.011,182.995 114.5,181.5 Z"/></g>
<g><path style="opacity:0.999" fill="#de86c5" d="M 222.5,229.5 C 221.943,234.165 220.61,238.498 218.5,242.5C 218.5,241.5 218.5,240.5 218.5,239.5C 216.692,239.509 215.025,239.009 213.5,238C 213.833,237.667 214.167,237.333 214.5,237C 212.919,236.293 211.419,235.46 210,234.5C 207.333,235.833 205.333,235.167 204,232.5C 203,232.833 202,233.167 201,233.5C 198.833,231.833 196.667,230.167 194.5,228.5C 193.707,228.931 192.873,229.265 192,229.5C 190.51,228.318 189.177,227.318 188,226.5C 187.309,228.891 186.309,228.891 185,226.5C 184.667,226.833 184.333,227.167 184,227.5C 183,226.167 182,224.833 181,223.5C 179.286,224.925 177.953,224.592 177,222.5C 174.649,225.21 172.649,224.877 171,221.5C 170.439,222.022 169.772,222.355 169,222.5C 167.502,220.441 165.502,219.108 163,218.5C 161.442,219.345 160.442,218.679 160,216.5C 159.374,218.991 158.541,218.991 157.5,216.5C 155.38,217.872 154.38,217.205 154.5,214.5C 153.178,214.67 152.011,214.337 151,213.5C 150.612,214.428 149.945,215.095 149,215.5C 146.375,213.452 143.709,211.452 141,209.5C 139.274,210.576 137.441,210.743 135.5,210C 136.696,209.346 136.696,208.846 135.5,208.5C 134.117,211.076 133.283,210.742 133,207.5C 131.097,207.694 129.263,207.694 127.5,207.5C 127.891,206.109 127.058,205.109 125,204.5C 123.853,205.458 122.853,205.125 122,203.5C 119.968,205.768 118.635,205.102 118,201.5C 116.84,203.797 115.84,203.464 115,200.5C 113.037,203.946 111.704,203.946 111,200.5C 110.667,201.167 110.333,201.833 110,202.5C 109.722,201.584 109.222,200.918 108.5,200.5C 109.503,197.15 110.503,193.817 111.5,190.5C 112.15,190.196 112.817,189.863 113.5,189.5C 116.833,191.167 120.167,192.833 123.5,194.5C 124.167,194.167 124.833,193.833 125.5,193.5C 127.5,194.833 129.5,196.167 131.5,197.5C 133.776,196.798 136.109,196.965 138.5,198C 138.167,198.333 137.833,198.667 137.5,199C 139.402,199.199 140.902,200.033 142,201.5C 143.388,200.446 144.888,200.28 146.5,201C 147.875,203.477 149.709,204.311 152,203.5C 154.95,204.392 157.617,205.725 160,207.5C 160.333,206.833 160.667,206.167 161,205.5C 162,206.833 163,208.167 164,209.5C 164.414,209.043 164.914,208.709 165.5,208.5C 167.838,209.616 170.004,210.95 172,212.5C 175.209,210.725 177.875,211.725 180,215.5C 180.308,214.692 180.808,214.025 181.5,213.5C 184.012,214.38 186.179,215.713 188,217.5C 188.333,216.833 188.667,216.167 189,215.5C 190.012,217.864 191.345,219.198 193,219.5C 193.333,219.167 193.667,218.833 194,218.5C 196.927,220.271 199.927,220.938 203,220.5C 203.918,222.632 205.251,223.299 207,222.5C 211.865,225.47 216.198,227.47 220,228.5C 221.007,226.258 221.841,226.592 222.5,229.5 Z"/></g>
<g><path style="opacity:0.997" fill="#9643fb" d="M 112.5,185.5 C 112.371,187.216 112.038,188.883 111.5,190.5C 110.503,193.817 109.503,197.15 108.5,200.5C 107.193,203.725 106.193,207.059 105.5,210.5C 104.101,213.699 103.101,217.032 102.5,220.5C 100.971,224.421 99.6373,228.421 98.5,232.5C 98.4431,233.609 98.1098,234.609 97.5,235.5C 96.5041,235.586 95.6708,235.252 95,234.5C 94.6258,235.416 94.1258,236.25 93.5,237C 90.5,238 87.5,239 84.5,240C 83.6383,242.734 82.805,242.901 82,240.5C 79.2586,243.792 75.7586,245.959 71.5,247C 70.6383,249.734 69.805,249.901 69,247.5C 67.2246,249.394 65.2246,251.061 63,252.5C 62.6667,252.167 62.3333,251.833 62,251.5C 60.9085,253.131 60.0751,254.798 59.5,256.5C 55.5838,244.163 52.5838,231.496 50.5,218.5C 50.3433,217.127 50.51,215.793 51,214.5C 51.3333,214.833 51.6667,215.167 52,215.5C 53,214.167 54,212.833 55,211.5C 55.3333,212.167 55.6667,212.833 56,213.5C 56.3589,210.456 57.0255,210.122 58,212.5C 59.0029,209.844 60.6696,208.844 63,209.5C 63.3333,208.5 63.6667,207.5 64,206.5C 67.3127,207.86 69.9794,206.527 72,202.5C 72.9745,204.878 73.6411,204.544 74,201.5C 74.3333,201.833 74.6667,202.167 75,202.5C 76.3086,200.109 77.3086,200.109 78,202.5C 79,201.167 80,199.833 81,198.5C 81.9745,200.878 82.6411,200.544 83,197.5C 84.3333,197.5 85.6667,197.5 87,197.5C 88.7032,196.054 90.8699,194.387 93.5,192.5C 94.086,192.709 94.586,193.043 95,193.5C 96.1711,192.107 97.6711,191.273 99.5,191C 98.8333,190.667 98.1667,190.333 97.5,190C 98.7839,189.316 99.9505,189.483 101,190.5C 103.986,189.288 105.986,187.621 107,185.5C 108.06,185.254 109.227,185.254 110.5,185.5C 111.738,181.689 112.404,181.689 112.5,185.5 Z"/></g>
<g><path style="opacity:0.999" fill="#e18ac2" d="M 108.5,200.5 C 109.222,200.918 109.722,201.584 110,202.5C 110.333,201.833 110.667,201.167 111,200.5C 111.704,203.946 113.037,203.946 115,200.5C 115.84,203.464 116.84,203.797 118,201.5C 118.635,205.102 119.968,205.768 122,203.5C 122.853,205.125 123.853,205.458 125,204.5C 127.058,205.109 127.891,206.109 127.5,207.5C 129.263,207.694 131.097,207.694 133,207.5C 133.283,210.742 134.117,211.076 135.5,208.5C 136.696,208.846 136.696,209.346 135.5,210C 137.441,210.743 139.274,210.576 141,209.5C 143.709,211.452 146.375,213.452 149,215.5C 149.945,215.095 150.612,214.428 151,213.5C 152.011,214.337 153.178,214.67 154.5,214.5C 154.38,217.205 155.38,217.872 157.5,216.5C 158.541,218.991 159.374,218.991 160,216.5C 160.442,218.679 161.442,219.345 163,218.5C 165.502,219.108 167.502,220.441 169,222.5C 169.772,222.355 170.439,222.022 171,221.5C 172.649,224.877 174.649,225.21 177,222.5C 177.953,224.592 179.286,224.925 181,223.5C 182,224.833 183,226.167 184,227.5C 184.333,227.167 184.667,226.833 185,226.5C 186.309,228.891 187.309,228.891 188,226.5C 189.177,227.318 190.51,228.318 192,229.5C 192.873,229.265 193.707,228.931 194.5,228.5C 196.667,230.167 198.833,231.833 201,233.5C 202,233.167 203,232.833 204,232.5C 205.333,235.167 207.333,235.833 210,234.5C 211.419,235.46 212.919,236.293 214.5,237C 214.167,237.333 213.833,237.667 213.5,238C 215.025,239.009 216.692,239.509 218.5,239.5C 218.5,240.5 218.5,241.5 218.5,242.5C 218.279,245.067 217.612,247.401 216.5,249.5C 214.212,248.926 212.045,247.926 210,246.5C 208.605,247.815 207.605,247.481 207,245.5C 206.667,245.833 206.333,246.167 206,246.5C 205.309,243.734 203.809,243.067 201.5,244.5C 199.885,243.846 198.218,243.346 196.5,243C 195.874,242.25 195.374,241.416 195,240.5C 194,241.833 193,241.833 192,240.5C 191.026,242.878 190.359,242.544 190,239.5C 188.984,240.634 188.317,240.301 188,238.5C 187.586,238.957 187.086,239.291 186.5,239.5C 184.885,238.846 183.218,238.346 181.5,238C 182.167,237.667 182.833,237.333 183.5,237C 181.291,235.309 179.458,235.476 178,237.5C 176.856,235.083 175.19,234.416 173,235.5C 172.292,232.732 170.792,231.899 168.5,233C 168.908,230.139 168.075,229.972 166,232.5C 164.857,229.085 163.19,228.751 161,231.5C 158.985,229.083 156.985,227.416 155,226.5C 154.667,227.167 154.333,227.833 154,228.5C 150.302,226.486 146.635,224.486 143,222.5C 141.732,222.616 140.398,222.949 139,223.5C 138.5,222.333 137.667,221.5 136.5,221C 134.238,220.358 132.071,219.525 130,218.5C 128.984,219.634 128.317,219.301 128,217.5C 126.984,218.634 126.317,218.301 126,216.5C 124.602,217.051 123.268,217.384 122,217.5C 120.635,215.14 118.635,213.473 116,212.5C 113.241,211.411 110.575,211.411 108,212.5C 107.583,211.244 106.75,210.577 105.5,210.5C 106.193,207.059 107.193,203.725 108.5,200.5 Z"/></g>
<g><path style="opacity:0.998" fill="#e38dbf" d="M 105.5,210.5 C 106.75,210.577 107.583,211.244 108,212.5C 110.575,211.411 113.241,211.411 116,212.5C 118.635,213.473 120.635,215.14 122,217.5C 123.268,217.384 124.602,217.051 126,216.5C 126.317,218.301 126.984,218.634 128,217.5C 128.317,219.301 128.984,219.634 130,218.5C 132.071,219.525 134.238,220.358 136.5,221C 137.667,221.5 138.5,222.333 139,223.5C 140.398,222.949 141.732,222.616 143,222.5C 146.635,224.486 150.302,226.486 154,228.5C 154.333,227.833 154.667,227.167 155,226.5C 156.985,227.416 158.985,229.083 161,231.5C 163.19,228.751 164.857,229.085 166,232.5C 168.075,229.972 168.908,230.139 168.5,233C 170.792,231.899 172.292,232.732 173,235.5C 175.19,234.416 176.856,235.083 178,237.5C 179.458,235.476 181.291,235.309 183.5,237C 182.833,237.333 182.167,237.667 181.5,238C 183.218,238.346 184.885,238.846 186.5,239.5C 187.086,239.291 187.586,238.957 188,238.5C 188.317,240.301 188.984,240.634 190,239.5C 190.359,242.544 191.026,242.878 192,240.5C 193,241.833 194,241.833 195,240.5C 195.374,241.416 195.874,242.25 196.5,243C 198.218,243.346 199.885,243.846 201.5,244.5C 203.809,243.067 205.309,243.734 206,246.5C 206.333,246.167 206.667,245.833 207,245.5C 207.605,247.481 208.605,247.815 210,246.5C 212.045,247.926 214.212,248.926 216.5,249.5C 215.739,253.784 214.405,257.784 212.5,261.5C 210.856,260.684 209.69,259.35 209,257.5C 208.026,259.878 207.359,259.544 207,256.5C 205.691,258.891 204.691,258.891 204,256.5C 203.667,256.833 203.333,257.167 203,257.5C 200.257,254.169 196.923,252.836 193,253.5C 191.494,250.526 189.828,250.193 188,252.5C 184.915,250.907 182.248,248.907 180,246.5C 179.667,247.167 179.333,247.833 179,248.5C 178,247.167 177,247.167 176,248.5C 175.935,246.117 175.102,245.45 173.5,246.5C 173.167,245.833 172.833,245.167 172.5,244.5C 171.158,245.902 170.324,245.569 170,243.5C 168.097,243.694 166.263,243.694 164.5,243.5C 163.459,241.009 162.626,241.009 162,243.5C 160.615,242.449 159.615,241.116 159,239.5C 158.333,242.167 157.667,242.167 157,239.5C 156.667,240.167 156.333,240.833 156,241.5C 154.068,239.962 151.901,238.795 149.5,238C 150.696,237.346 150.696,236.846 149.5,236.5C 147.694,237.859 146.194,237.525 145,235.5C 144.026,237.878 143.359,237.544 143,234.5C 142.667,234.833 142.333,235.167 142,235.5C 140.893,232.508 139.226,231.841 137,233.5C 135.863,232.636 134.53,231.636 133,230.5C 132.439,231.022 131.772,231.355 131,231.5C 129.112,230.223 127.112,229.223 125,228.5C 123.434,229.061 122.101,228.394 121,226.5C 117.527,227.62 114.194,226.62 111,223.5C 110.667,224.167 110.333,224.833 110,225.5C 108.702,221.692 106.702,220.692 104,222.5C 103.722,221.584 103.222,220.918 102.5,220.5C 103.101,217.032 104.101,213.699 105.5,210.5 Z"/></g>
<g><path style="opacity:0.998" fill="#e590bd" d="M 102.5,220.5 C 103.222,220.918 103.722,221.584 104,222.5C 106.702,220.692 108.702,221.692 110,225.5C 110.333,224.833 110.667,224.167 111,223.5C 114.194,226.62 117.527,227.62 121,226.5C 122.101,228.394 123.434,229.061 125,228.5C 127.112,229.223 129.112,230.223 131,231.5C 131.772,231.355 132.439,231.022 133,230.5C 134.53,231.636 135.863,232.636 137,233.5C 139.226,231.841 140.893,232.508 142,235.5C 142.333,235.167 142.667,234.833 143,234.5C 143.359,237.544 144.026,237.878 145,235.5C 146.194,237.525 147.694,237.859 149.5,236.5C 150.696,236.846 150.696,237.346 149.5,238C 151.901,238.795 154.068,239.962 156,241.5C 156.333,240.833 156.667,240.167 157,239.5C 157.667,242.167 158.333,242.167 159,239.5C 159.615,241.116 160.615,242.449 162,243.5C 162.626,241.009 163.459,241.009 164.5,243.5C 166.263,243.694 168.097,243.694 170,243.5C 170.324,245.569 171.158,245.902 172.5,244.5C 172.833,245.167 173.167,245.833 173.5,246.5C 175.102,245.45 175.935,246.117 176,248.5C 177,247.167 178,247.167 179,248.5C 179.333,247.833 179.667,247.167 180,246.5C 182.248,248.907 184.915,250.907 188,252.5C 189.828,250.193 191.494,250.526 193,253.5C 196.923,252.836 200.257,254.169 203,257.5C 203.333,257.167 203.667,256.833 204,256.5C 204.691,258.891 205.691,258.891 207,256.5C 207.359,259.544 208.026,259.878 209,257.5C 209.69,259.35 210.856,260.684 212.5,261.5C 211.668,265.309 210.001,268.643 207.5,271.5C 207.631,270.624 207.298,269.957 206.5,269.5C 205.604,270.506 204.938,270.506 204.5,269.5C 205.03,267.756 205.03,266.256 204.5,265C 202.236,265.698 200.403,265.198 199,263.5C 197.951,264.517 196.784,264.684 195.5,264C 196.167,263.667 196.833,263.333 197.5,263C 195.236,263.698 193.403,263.198 192,261.5C 190.251,262.299 188.918,261.632 188,259.5C 186.853,260.458 185.853,260.125 185,258.5C 183.853,259.458 182.853,259.125 182,257.5C 179.184,258.13 176.518,257.464 174,255.5C 173.667,255.833 173.333,256.167 173,256.5C 168.465,254.391 163.965,252.057 159.5,249.5C 157.259,248.36 155.092,248.36 153,249.5C 151,248.167 149,246.833 147,245.5C 144.345,246.262 142.345,245.262 141,242.5C 140.692,243.308 140.192,243.975 139.5,244.5C 137.124,243.409 134.624,241.743 132,239.5C 131.333,242.167 130.667,242.167 130,239.5C 128.853,240.458 127.853,240.125 127,238.5C 125.333,238.5 123.667,238.5 122,238.5C 120.406,237.427 118.906,236.427 117.5,235.5C 116.158,236.902 115.324,236.569 115,234.5C 114.667,234.833 114.333,235.167 114,235.5C 111.899,234.076 109.733,232.742 107.5,231.5C 105.866,231.968 104.7,232.968 104,234.5C 102.662,231.918 100.829,231.251 98.5,232.5C 99.6373,228.421 100.971,224.421 102.5,220.5 Z"/></g>
<g><path style="opacity:0.998" fill="#e893ba" d="M 207.5,271.5 C 205.431,274.573 202.764,276.906 199.5,278.5C 194.825,276.185 190.325,273.519 186,270.5C 185,271.833 184,271.833 183,270.5C 182.667,271.167 182.333,271.833 182,272.5C 179.949,270.476 177.616,268.81 175,267.5C 174.439,268.022 173.772,268.355 173,268.5C 170.244,267.314 167.578,265.981 165,264.5C 163.127,265.089 161.46,264.422 160,262.5C 159.667,262.833 159.333,263.167 159,263.5C 157.601,262.773 156.101,262.273 154.5,262C 155.833,261.333 155.833,260.667 154.5,260C 153.451,259.508 152.451,259.674 151.5,260.5C 150.094,259.573 148.594,258.573 147,257.5C 146,257.833 145,258.167 144,258.5C 142.429,257.796 140.762,256.463 139,254.5C 138.586,254.957 138.086,255.291 137.5,255.5C 134.68,253.748 131.846,253.082 129,253.5C 127.185,251.595 125.185,249.928 123,248.5C 122.333,251.167 121.667,251.167 121,248.5C 120.667,249.167 120.333,249.833 120,250.5C 118.988,248.136 117.655,246.802 116,246.5C 115.667,247.167 115.333,247.833 115,248.5C 113.796,247.529 113.296,246.529 113.5,245.5C 112.459,247.991 111.626,247.991 111,245.5C 109.16,246.833 108.66,246.666 109.5,245C 108.551,244.383 107.718,244.549 107,245.5C 106.676,243.431 105.842,243.098 104.5,244.5C 103.186,243.687 102.019,242.687 101,241.5C 100.026,243.878 99.3589,243.544 99,240.5C 98.2303,241.598 97.397,241.598 96.5,240.5C 96.6287,238.784 96.962,237.117 97.5,235.5C 98.1098,234.609 98.4431,233.609 98.5,232.5C 100.829,231.251 102.662,231.918 104,234.5C 104.7,232.968 105.866,231.968 107.5,231.5C 109.733,232.742 111.899,234.076 114,235.5C 114.333,235.167 114.667,234.833 115,234.5C 115.324,236.569 116.158,236.902 117.5,235.5C 118.906,236.427 120.406,237.427 122,238.5C 123.667,238.5 125.333,238.5 127,238.5C 127.853,240.125 128.853,240.458 130,239.5C 130.667,242.167 131.333,242.167 132,239.5C 134.624,241.743 137.124,243.409 139.5,244.5C 140.192,243.975 140.692,243.308 141,242.5C 142.345,245.262 144.345,246.262 147,245.5C 149,246.833 151,248.167 153,249.5C 155.092,248.36 157.259,248.36 159.5,249.5C 163.965,252.057 168.465,254.391 173,256.5C 173.333,256.167 173.667,255.833 174,255.5C 176.518,257.464 179.184,258.13 182,257.5C 182.853,259.125 183.853,259.458 185,258.5C 185.853,260.125 186.853,260.458 188,259.5C 188.918,261.632 190.251,262.299 192,261.5C 193.403,263.198 195.236,263.698 197.5,263C 196.833,263.333 196.167,263.667 195.5,264C 196.784,264.684 197.951,264.517 199,263.5C 200.403,265.198 202.236,265.698 204.5,265C 205.03,266.256 205.03,267.756 204.5,269.5C 204.938,270.506 205.604,270.506 206.5,269.5C 207.298,269.957 207.631,270.624 207.5,271.5 Z"/></g>
<g><path style="opacity:0.997" fill="#ea96b6" d="M 96.5,240.5 C 97.397,241.598 98.2303,241.598 99,240.5C 99.3589,243.544 100.026,243.878 101,241.5C 102.019,242.687 103.186,243.687 104.5,244.5C 105.842,243.098 106.676,243.431 107,245.5C 107.718,244.549 108.551,244.383 109.5,245C 108.66,246.666 109.16,246.833 111,245.5C 111.626,247.991 112.459,247.991 113.5,245.5C 113.296,246.529 113.796,247.529 115,248.5C 115.333,247.833 115.667,247.167 116,246.5C 117.655,246.802 118.988,248.136 120,250.5C 120.333,249.833 120.667,249.167 121,248.5C 121.667,251.167 122.333,251.167 123,248.5C 125.185,249.928 127.185,251.595 129,253.5C 131.846,253.082 134.68,253.748 137.5,255.5C 138.086,255.291 138.586,254.957 139,254.5C 140.762,256.463 142.429,257.796 144,258.5C 145,258.167 146,257.833 147,257.5C 148.594,258.573 150.094,259.573 151.5,260.5C 152.451,259.674 153.451,259.508 154.5,260C 155.833,260.667 155.833,261.333 154.5,262C 156.101,262.273 157.601,262.773 159,263.5C 159.333,263.167 159.667,262.833 160,262.5C 161.46,264.422 163.127,265.089 165,264.5C 167.578,265.981 170.244,267.314 173,268.5C 173.772,268.355 174.439,268.022 175,267.5C 177.616,268.81 179.949,270.476 182,272.5C 182.333,271.833 182.667,271.167 183,270.5C 184,271.833 185,271.833 186,270.5C 190.325,273.519 194.825,276.185 199.5,278.5C 197.438,279.776 195.104,280.61 192.5,281C 186.175,281.5 179.842,281.666 173.5,281.5C 173.607,279.621 173.107,279.288 172,280.5C 171,279.5 170,278.5 169,277.5C 167.167,277.667 165.333,277.833 163.5,278C 164.451,277.282 164.617,276.449 164,275.5C 161.311,276.747 158.644,276.747 156,275.5C 154.601,274.773 153.101,274.273 151.5,274C 151.833,273.667 152.167,273.333 152.5,273C 151.24,271.887 150.073,271.72 149,272.5C 148.667,271.833 148.333,271.167 148,270.5C 146.951,271.517 145.784,271.684 144.5,271C 145.167,270.667 145.833,270.333 146.5,270C 144.22,269.788 142.22,268.955 140.5,267.5C 140.167,268.167 139.833,268.833 139.5,269.5C 137.327,267.187 134.494,265.521 131,264.5C 130.667,264.833 130.333,265.167 130,265.5C 128.806,263.475 127.306,263.141 125.5,264.5C 122.885,264.144 121.052,262.811 120,260.5C 119.333,261.167 118.667,261.833 118,262.5C 116.903,260.947 115.57,259.614 114,258.5C 111.816,259.108 109.816,258.441 108,256.5C 106.602,257.051 105.268,257.384 104,257.5C 101.904,256.285 102.071,255.451 104.5,255C 100.876,254.812 97.7094,253.645 95,251.5C 94.6582,253.619 93.8249,253.953 92.5,252.5C 93.5418,248.303 94.8751,244.303 96.5,240.5 Z"/></g>
<g><path style="opacity:0.986" fill="#ee9bb3" d="M 173.5,281.5 C 141.167,281.5 108.833,281.5 76.5,281.5C 84.0688,273.185 89.4022,263.518 92.5,252.5C 93.8249,253.953 94.6582,253.619 95,251.5C 97.7094,253.645 100.876,254.812 104.5,255C 102.071,255.451 101.904,256.285 104,257.5C 105.268,257.384 106.602,257.051 108,256.5C 109.816,258.441 111.816,259.108 114,258.5C 115.57,259.614 116.903,260.947 118,262.5C 118.667,261.833 119.333,261.167 120,260.5C 121.052,262.811 122.885,264.144 125.5,264.5C 127.306,263.141 128.806,263.475 130,265.5C 130.333,265.167 130.667,264.833 131,264.5C 134.494,265.521 137.327,267.187 139.5,269.5C 139.833,268.833 140.167,268.167 140.5,267.5C 142.22,268.955 144.22,269.788 146.5,270C 145.833,270.333 145.167,270.667 144.5,271C 145.784,271.684 146.951,271.517 148,270.5C 148.333,271.167 148.667,271.833 149,272.5C 150.073,271.72 151.24,271.887 152.5,273C 152.167,273.333 151.833,273.667 151.5,274C 153.101,274.273 154.601,274.773 156,275.5C 158.644,276.747 161.311,276.747 164,275.5C 164.617,276.449 164.451,277.282 163.5,278C 165.333,277.833 167.167,277.667 169,277.5C 170,278.5 171,279.5 172,280.5C 173.107,279.288 173.607,279.621 173.5,281.5 Z"/></g>
<g><path style="opacity:0.982" fill="#893dfb" d="M 97.5,235.5 C 96.962,237.117 96.6287,238.784 96.5,240.5C 94.8751,244.303 93.5418,248.303 92.5,252.5C 89.4022,263.518 84.0688,273.185 76.5,281.5C 73.7276,281.78 71.2276,281.113 69,279.5C 64.175,272.517 61.0084,264.85 59.5,256.5C 60.0751,254.798 60.9085,253.131 62,251.5C 62.3333,251.833 62.6667,252.167 63,252.5C 65.2246,251.061 67.2246,249.394 69,247.5C 69.805,249.901 70.6383,249.734 71.5,247C 75.7586,245.959 79.2586,243.792 82,240.5C 82.805,242.901 83.6383,242.734 84.5,240C 87.5,239 90.5,238 93.5,237C 94.1258,236.25 94.6258,235.416 95,234.5C 95.6708,235.252 96.5041,235.586 97.5,235.5 Z"/></g>
</svg>
