<?xml version="1.0" encoding="UTF-8"?>
<!DOCTYPE svg PUBLIC "-//W3C//DTD SVG 1.1//EN" "http://www.w3.org/Graphics/SVG/1.1/DTD/svg11.dtd">
<svg xmlns="http://www.w3.org/2000/svg" version="1.1" width="180px" height="180px" style="shape-rendering:geometricPrecision; text-rendering:geometricPrecision; image-rendering:optimizeQuality; fill-rule:evenodd; clip-rule:evenodd" xmlns:xlink="http://www.w3.org/1999/xlink">
<g><path style="opacity:0.023" fill="#000100" d="M 36.5,42.5 C 42.4018,41.962 48.0685,42.7953 53.5,45C 60.3966,51.0689 67.0633,57.2356 73.5,63.5C 74.1667,63.3333 74.8333,63.1667 75.5,63C 80.1335,57.3651 85.1335,52.0318 90.5,47C 101.136,40.7292 111.47,41.2292 121.5,48.5C 125.041,46.4701 128.708,44.6368 132.5,43C 150.667,41.1667 158.833,49.3333 157,67.5C 155.556,70.0546 154.389,72.7213 153.5,75.5C 155.495,79.6514 156.995,83.9848 158,88.5C 158.667,100.167 158.667,111.833 158,123.5C 154.971,137.183 146.471,143.016 132.5,141C 128.861,139.266 125.361,137.432 122,135.5C 118.149,137.174 114.316,139.008 110.5,141C 101.759,143.042 94.2589,140.875 88,134.5C 85.8307,130.649 83.6641,126.815 81.5,123C 77.2962,123.297 73.1295,123.13 69,122.5C 66.9658,122.354 65.2991,123.02 64,124.5C 59.4419,137.534 50.2752,143.034 36.5,141C 26.8904,137.647 21.7238,130.814 21,120.5C 20.3333,101.5 20.3333,82.5 21,63.5C 22.2442,53.4455 27.4108,46.4455 36.5,42.5 Z"/></g>
<g><path style="opacity:0.992" fill="#8bc53f" d="M 133.5,45.5 C 144.13,43.9642 150.463,48.4642 152.5,59C 149.233,72.3019 141.566,75.8019 129.5,69.5C 122.202,60.0603 123.536,52.0603 133.5,45.5 Z"/></g>
<g><path style="opacity:1" fill="#90c934" d="M 60.5,58.5 C 58.6916,58.4914 57.0249,58.9914 55.5,60C 47.5736,65.4545 39.5736,70.6212 31.5,75.5C 29.8564,76.3164 28.6897,77.6498 28,79.5C 27.5001,92.8292 27.3334,106.163 27.5,119.5C 26.3374,99.3375 26.1708,79.0042 27,58.5C 31.3305,46.0854 39.4971,42.5854 51.5,48C 55.0845,51.0781 58.0845,54.5781 60.5,58.5 Z"/></g>
<g><path style="opacity:1" fill="#88bc09" d="M 119.5,58.5 C 119.666,65.175 119.5,71.8417 119,78.5C 116.347,75.8059 113.18,74.9726 109.5,76C 104.541,81.1124 100.207,86.6124 96.5,92.5C 94.4599,92.4359 92.1266,92.2692 89.5,92C 82.8894,85.2334 76.8894,78.0667 71.5,70.5C 72.8734,70.6567 74.2068,70.49 75.5,70C 80.3539,65.1139 84.8539,59.9473 89,54.5C 98.0546,43.3589 107.721,42.6923 118,52.5C 119.128,54.3453 119.628,56.3453 119.5,58.5 Z"/></g>
<g><path style="opacity:0.999" fill="#77a300" d="M 119.5,58.5 C 120.663,78.6625 120.829,98.9958 120,119.5C 116.29,132.603 108.124,136.437 95.5,131C 93.2911,129.127 91.4578,126.96 90,124.5C 88.9268,118.551 88.2601,112.551 88,106.5C 87.6174,107.056 87.1174,107.389 86.5,107.5C 89.575,102.357 92.9084,97.3566 96.5,92.5C 100.207,86.6124 104.541,81.1124 109.5,76C 113.18,74.9726 116.347,75.8059 119,78.5C 119.5,71.8417 119.666,65.175 119.5,58.5 Z"/></g>
<g><path style="opacity:1" fill="#91cb15" d="M 60.5,58.5 C 64.1573,62.4587 67.824,66.4587 71.5,70.5C 76.8894,78.0667 82.8894,85.2334 89.5,92C 92.1266,92.2692 94.4599,92.4359 96.5,92.5C 92.9084,97.3566 89.575,102.357 86.5,107.5C 80.5808,115.038 73.2475,116.538 64.5,112C 62.797,109.668 60.797,107.835 58.5,106.5C 58.6107,105.883 58.944,105.383 59.5,105C 52.5506,95.0494 45.2172,85.3828 37.5,76C 35.5273,75.5045 33.5273,75.3379 31.5,75.5C 39.5736,70.6212 47.5736,65.4545 55.5,60C 57.0249,58.9914 58.6916,58.4914 60.5,58.5 Z"/></g>
<g><path style="opacity:0.996" fill="#8ac02d" d="M 151.5,85.5 C 151.5,96.5 151.5,107.5 151.5,118.5C 142.833,118.5 134.167,118.5 125.5,118.5C 125.5,107.5 125.5,96.5 125.5,85.5C 127.845,76.1501 133.845,72.6501 143.5,75C 147.985,77.1443 150.651,80.6443 151.5,85.5 Z"/></g>
<g><path style="opacity:0.999" fill="#9ad105" d="M 31.5,75.5 C 33.5273,75.3379 35.5273,75.5045 37.5,76C 45.2172,85.3828 52.5506,95.0494 59.5,105C 58.944,105.383 58.6107,105.883 58.5,106.5C 58.8608,112.593 58.3608,118.593 57,124.5C 51.1759,133.771 43.3425,135.938 33.5,131C 29.7731,128.045 27.7731,124.212 27.5,119.5C 27.3334,106.163 27.5001,92.8292 28,79.5C 28.6897,77.6498 29.8564,76.3164 31.5,75.5 Z"/></g>
<g><path style="opacity:0.996" fill="#79a910" d="M 125.5,85.5 C 125.5,96.5 125.5,107.5 125.5,118.5C 134.167,118.5 142.833,118.5 151.5,118.5C 151.5,107.5 151.5,96.5 151.5,85.5C 152.66,97.6597 152.827,109.993 152,122.5C 148.509,132.829 141.675,135.995 131.5,132C 128.131,129.635 125.964,126.468 125,122.5C 124.173,109.993 124.34,97.6597 125.5,85.5 Z"/></g>
</svg>
