<?xml version="1.0" encoding="UTF-8"?>
<!DOCTYPE svg PUBLIC "-//W3C//DTD SVG 1.1//EN" "http://www.w3.org/Graphics/SVG/1.1/DTD/svg11.dtd">
<svg xmlns="http://www.w3.org/2000/svg" version="1.1" width="144px" height="144px" style="shape-rendering:geometricPrecision; text-rendering:geometricPrecision; image-rendering:optimizeQuality; fill-rule:evenodd; clip-rule:evenodd" xmlns:xlink="http://www.w3.org/1999/xlink">
<g><path style="opacity:0.984" fill="#211e20" d="M 71.5,36.5 C 70.6618,36.8417 70.3284,37.5084 70.5,38.5C 53.4823,49.0061 36.8156,60.0061 20.5,71.5C 19.8333,71.5 19.1667,71.5 18.5,71.5C 18.1669,48.1571 18.5003,24.8238 19.5,1.5C 36.899,13.1898 54.2323,24.8565 71.5,36.5 Z"/></g>
<g><path style="opacity:0.952" fill="#f1670c" d="M 71.5,36.5 C 89.3842,47.3907 106.718,59.0573 123.5,71.5C 106.7,83.9684 89.3664,95.635 71.5,106.5C 70.6618,106.158 70.3284,105.492 70.5,104.5C 70.5,82.5 70.5,60.5 70.5,38.5C 70.3284,37.5084 70.6618,36.8417 71.5,36.5 Z"/></g>
<g><path style="opacity:0.964" fill="#727272" d="M 18.5,71.5 C 19.1667,71.5 19.8333,71.5 20.5,71.5C 36.8156,82.9939 53.4823,93.9939 70.5,104.5C 70.3284,105.492 70.6618,106.158 71.5,106.5C 54.5775,118.639 37.2442,130.306 19.5,141.5C 18.5003,118.176 18.1669,94.8429 18.5,71.5 Z"/></g>
</svg>
