<?xml version="1.0" encoding="UTF-8"?>
<!DOCTYPE svg PUBLIC "-//W3C//DTD SVG 1.1//EN" "http://www.w3.org/Graphics/SVG/1.1/DTD/svg11.dtd">
<svg xmlns="http://www.w3.org/2000/svg" version="1.1" width="75px" height="75px" style="shape-rendering:geometricPrecision; text-rendering:geometricPrecision; image-rendering:optimizeQuality; fill-rule:evenodd; clip-rule:evenodd" xmlns:xlink="http://www.w3.org/1999/xlink">
<g><path style="opacity:0.991" fill="#ff861a" d="M 27.5,-0.5 C 29.1667,-0.5 30.8333,-0.5 32.5,-0.5C 40.8241,5.33172 49.4908,10.6651 58.5,15.5C 58.8016,18.0593 58.4682,20.3926 57.5,22.5C 57.0629,20.9256 56.0629,19.7589 54.5,19C 44.7688,12.8089 35.1021,6.64224 25.5,0.5C 26.4916,0.67158 27.1583,0.338246 27.5,-0.5 Z"/></g>
<g><path style="opacity:0.982" fill="#fc7e20" d="M 32.5,-0.5 C 36.8333,-0.5 41.1667,-0.5 45.5,-0.5C 48.2542,0.641417 50.9209,1.97475 53.5,3.5C 54.1667,4.5 54.8333,5.5 55.5,6.5C 57.3357,9.18257 58.3357,12.1826 58.5,15.5C 49.4908,10.6651 40.8241,5.33172 32.5,-0.5 Z"/></g>
<g><path style="opacity:0.99" fill="#fc8d19" d="M 25.5,0.5 C 35.1021,6.64224 44.7688,12.8089 54.5,19C 56.0629,19.7589 57.0629,20.9256 57.5,22.5C 56.2343,25.7549 54.5676,28.7549 52.5,31.5C 50.4506,26.1193 46.4506,23.1193 40.5,22.5C 39.3212,16.4611 35.9878,12.1277 30.5,9.5C 29.7375,8.73209 28.7375,8.23209 27.5,8C 24.1832,7.50166 20.8499,7.33499 17.5,7.5C 14.3516,8.57576 11.3516,9.90909 8.5,11.5C 12.9705,6.09123 18.6372,2.42456 25.5,0.5 Z"/></g>
<g><path style="opacity:0.991" fill="#f01a4c" d="M 22.5,9.5 C 23.3764,9.36912 24.0431,9.70245 24.5,10.5C 16.6297,21.5982 8.29641,32.2648 -0.5,42.5C -0.5,39.5 -0.5,36.5 -0.5,33.5C 5.8498,26.6421 11.6831,19.3088 17,11.5C 18.4443,9.84464 20.2776,9.17798 22.5,9.5 Z"/></g>
<g><path style="opacity:0.949" fill="#eb0e51" d="M 17.5,7.5 C 19.1667,8.16667 20.8333,8.83333 22.5,9.5C 20.2776,9.17798 18.4443,9.84464 17,11.5C 11.6831,19.3088 5.8498,26.6421 -0.5,33.5C -0.5,31.5 -0.5,29.5 -0.5,27.5C 1.45857,21.5831 4.45857,16.2497 8.5,11.5C 11.3516,9.90909 14.3516,8.57576 17.5,7.5 Z"/></g>
<g><path style="opacity:1" fill="#ec2448" d="M 17.5,7.5 C 20.8499,7.33499 24.1832,7.50166 27.5,8C 28.7375,8.23209 29.7375,8.73209 30.5,9.5C 30.5,10.5 30.5,11.5 30.5,12.5C 29.5416,12.0472 28.7083,11.3805 28,10.5C 24.7147,15.4537 21.048,20.1203 17,24.5C 15.9914,26.0249 15.4914,27.6916 15.5,29.5C 5.67149,34.4901 1.67149,42.4901 3.5,53.5C 1.61854,51.0704 0.285203,48.4038 -0.5,45.5C -0.5,44.5 -0.5,43.5 -0.5,42.5C 8.29641,32.2648 16.6297,21.5982 24.5,10.5C 24.0431,9.70245 23.3764,9.36912 22.5,9.5C 20.8333,8.83333 19.1667,8.16667 17.5,7.5 Z"/></g>
<g><path style="opacity:0.989" fill="#16d542" d="M 53.5,3.5 C 64.4959,8.50015 71.4959,16.8335 74.5,28.5C 74.5,31.8333 74.5,35.1667 74.5,38.5C 72.9951,44.0064 69.6618,48.0064 64.5,50.5C 63.4434,43.1601 62.2768,35.8268 61,28.5C 60.6174,27.944 60.1174,27.6107 59.5,27.5C 62.9644,19.5218 61.6311,12.5218 55.5,6.5C 54.8333,5.5 54.1667,4.5 53.5,3.5 Z"/></g>
<g><path style="opacity:1" fill="#f32b46" d="M 30.5,12.5 C 33.6789,14.4961 34.0122,16.8294 31.5,19.5C 25.1754,19.4701 21.5087,22.4701 20.5,28.5C 19.5084,28.3284 18.8417,28.6618 18.5,29.5C 17.5,29.5 16.5,29.5 15.5,29.5C 15.4914,27.6916 15.9914,26.0249 17,24.5C 21.048,20.1203 24.7147,15.4537 28,10.5C 28.7083,11.3805 29.5416,12.0472 30.5,12.5 Z"/></g>
<g><path style="opacity:1" fill="#f6580e" d="M 55.5,6.5 C 61.6311,12.5218 62.9644,19.5218 59.5,27.5C 58.5589,29.7721 57.2255,31.7721 55.5,33.5C 54.609,34.1098 53.609,34.4431 52.5,34.5C 52.5,33.5 52.5,32.5 52.5,31.5C 54.5676,28.7549 56.2343,25.7549 57.5,22.5C 58.4682,20.3926 58.8016,18.0593 58.5,15.5C 58.3357,12.1826 57.3357,9.18257 55.5,6.5 Z"/></g>
<g><path style="opacity:1" fill="#e73d41" d="M 30.5,9.5 C 35.9878,12.1277 39.3212,16.4611 40.5,22.5C 36.4862,22.3345 32.4862,22.5012 28.5,23C 26.0718,24.0183 24.7385,25.8517 24.5,28.5C 23.1667,28.5 21.8333,28.5 20.5,28.5C 21.5087,22.4701 25.1754,19.4701 31.5,19.5C 34.0122,16.8294 33.6789,14.4961 30.5,12.5C 30.5,11.5 30.5,10.5 30.5,9.5 Z"/></g>
<g><path style="opacity:1" fill="#0ee351" d="M 59.5,27.5 C 60.1174,27.6107 60.6174,27.944 61,28.5C 62.2768,35.8268 63.4434,43.1601 64.5,50.5C 57.3177,53.7843 50.9844,52.451 45.5,46.5C 51.8212,44.5073 55.1545,40.1739 55.5,33.5C 57.2255,31.7721 58.5589,29.7721 59.5,27.5 Z"/></g>
<g><path style="opacity:0.992" fill="#a828ad" d="M 15.5,29.5 C 16.5,29.5 17.5,29.5 18.5,29.5C 20.1667,29.5 21.8333,29.5 23.5,29.5C 23.5,30.8333 23.5,32.1667 23.5,33.5C 20.3915,33.2641 17.3915,33.5975 14.5,34.5C 12.7697,35.0256 11.4363,36.0256 10.5,37.5C 9.5,37.8333 8.83333,38.5 8.5,39.5C 7.5,39.8333 6.83333,40.5 6.5,41.5C 5.83333,43.1667 5.16667,44.8333 4.5,46.5C 4.42305,50.2148 4.75638,53.8815 5.5,57.5C 4.32627,56.4863 3.6596,55.153 3.5,53.5C 1.67149,42.4901 5.67149,34.4901 15.5,29.5 Z"/></g>
<g><path style="opacity:1" fill="#cd32ad" d="M 14.5,34.5 C 18.3725,40.9986 21.7058,47.6653 24.5,54.5C 24.5,55.1667 24.5,55.8333 24.5,56.5C 22.2125,55.3813 20.3792,53.7147 19,51.5C 16.3382,46.6844 13.5049,42.0177 10.5,37.5C 11.4363,36.0256 12.7697,35.0256 14.5,34.5 Z"/></g>
<g><path style="opacity:1" fill="#ba38c5" d="M 6.5,41.5 C 14.5096,51.5234 21.5096,62.1901 27.5,73.5C 25.597,73.2041 23.9303,72.5375 22.5,71.5C 17.5828,63.4007 12.4162,55.4007 7,47.5C 6.32924,46.7476 5.4959,46.4142 4.5,46.5C 5.16667,44.8333 5.83333,43.1667 6.5,41.5 Z"/></g>
<g><path style="opacity:1" fill="#d13aa0" d="M 18.5,29.5 C 18.8417,28.6618 19.5084,28.3284 20.5,28.5C 21.8333,28.5 23.1667,28.5 24.5,28.5C 24.5,36.8333 24.5,45.1667 24.5,53.5C 24.5,53.8333 24.5,54.1667 24.5,54.5C 21.7058,47.6653 18.3725,40.9986 14.5,34.5C 17.3915,33.5975 20.3915,33.2641 23.5,33.5C 23.5,32.1667 23.5,30.8333 23.5,29.5C 21.8333,29.5 20.1667,29.5 18.5,29.5 Z"/></g>
<g><path style="opacity:0.959" fill="#ae3cd1" d="M 4.5,46.5 C 5.4959,46.4142 6.32924,46.7476 7,47.5C 12.4162,55.4007 17.5828,63.4007 22.5,71.5C 15.032,69.033 9.36532,64.3663 5.5,57.5C 4.75638,53.8815 4.42305,50.2148 4.5,46.5 Z"/></g>
<g><path style="opacity:1" fill="#1ddde3" d="M 43.5,44.5 C 42.2825,45.1614 40.9492,45.8281 39.5,46.5C 40.8569,48.1856 42.1902,49.8523 43.5,51.5C 37.6323,52.1817 32.7989,54.8484 29,59.5C 28.7711,56.2652 28.6044,53.2652 28.5,50.5C 31.9114,44.9565 36.9114,42.9565 43.5,44.5 Z"/></g>
<g><path style="opacity:1" fill="#17cf49" d="M 55.5,33.5 C 55.1545,40.1739 51.8212,44.5073 45.5,46.5C 50.9844,52.451 57.3177,53.7843 64.5,50.5C 69.6618,48.0064 72.9951,44.0064 74.5,38.5C 74.5,39.8333 74.5,41.1667 74.5,42.5C 71.574,49.7562 66.2407,54.0895 58.5,55.5C 52.8471,56.3266 47.8471,54.9933 43.5,51.5C 42.1902,49.8523 40.8569,48.1856 39.5,46.5C 40.9492,45.8281 42.2825,45.1614 43.5,44.5C 48.572,43.0919 51.572,39.7586 52.5,34.5C 53.609,34.4431 54.609,34.1098 55.5,33.5 Z"/></g>
<g><path style="opacity:1" fill="#08c2f0" d="M 28.5,50.5 C 28.6044,53.2652 28.7711,56.2652 29,59.5C 32.7989,54.8484 37.6323,52.1817 43.5,51.5C 47.8471,54.9933 52.8471,56.3266 58.5,55.5C 58.5,55.8333 58.5,56.1667 58.5,56.5C 55.8127,56.3359 53.146,56.5026 50.5,57C 45.6268,61.3781 40.6268,65.5448 35.5,69.5C 33.1669,67.5016 30.5002,66.1682 27.5,65.5C 25.9049,62.7146 24.9049,59.7146 24.5,56.5C 24.5,55.8333 24.5,55.1667 24.5,54.5C 24.5,54.1667 24.5,53.8333 24.5,53.5C 25.8333,52.5 27.1667,51.5 28.5,50.5 Z"/></g>
<g><path style="opacity:1" fill="#c037bf" d="M 8.5,39.5 C 16.6214,50.759 23.9548,62.4256 30.5,74.5C 29.8333,74.5 29.1667,74.5 28.5,74.5C 28.5,73.8333 28.1667,73.5 27.5,73.5C 21.5096,62.1901 14.5096,51.5234 6.5,41.5C 6.83333,40.5 7.5,39.8333 8.5,39.5 Z"/></g>
<g><path style="opacity:1" fill="#0998f6" d="M 74.5,42.5 C 74.5,43.8333 74.5,45.1667 74.5,46.5C 73.6554,47.6715 72.9887,49.0048 72.5,50.5C 63.7068,57.4548 55.0402,64.6215 46.5,72C 43.854,72.4974 41.1873,72.6641 38.5,72.5C 34.0236,71.429 30.3569,69.0957 27.5,65.5C 30.5002,66.1682 33.1669,67.5016 35.5,69.5C 35.6107,70.1174 35.944,70.6174 36.5,71C 38.5,71.6667 40.5,71.6667 42.5,71C 48.0286,66.3009 53.362,61.4676 58.5,56.5C 58.5,56.1667 58.5,55.8333 58.5,55.5C 66.2407,54.0895 71.574,49.7562 74.5,42.5 Z"/></g>
<g><path style="opacity:1" fill="#00a9fa" d="M 58.5,56.5 C 53.362,61.4676 48.0286,66.3009 42.5,71C 40.5,71.6667 38.5,71.6667 36.5,71C 35.944,70.6174 35.6107,70.1174 35.5,69.5C 40.6268,65.5448 45.6268,61.3781 50.5,57C 53.146,56.5026 55.8127,56.3359 58.5,56.5 Z"/></g>
<g><path style="opacity:0.713" fill="#028bfc" d="M 72.5,50.5 C 68.2182,63.1147 59.5515,70.7814 46.5,73.5C 43.6146,73.8064 40.9479,73.4731 38.5,72.5C 41.1873,72.6641 43.854,72.4974 46.5,72C 55.0402,64.6215 63.7068,57.4548 72.5,50.5 Z"/></g>
<g><path style="opacity:1" fill="#c437b7" d="M 10.5,37.5 C 13.5049,42.0177 16.3382,46.6844 19,51.5C 20.3792,53.7147 22.2125,55.3813 24.5,56.5C 24.9049,59.7146 25.9049,62.7146 27.5,65.5C 30.3569,69.0957 34.0236,71.429 38.5,72.5C 40.9479,73.4731 43.6146,73.8064 46.5,73.5C 46.5,73.8333 46.5,74.1667 46.5,74.5C 41.1667,74.5 35.8333,74.5 30.5,74.5C 23.9548,62.4256 16.6214,50.759 8.5,39.5C 8.83333,38.5 9.5,37.8333 10.5,37.5 Z"/></g>
</svg>
